<?xml version="1.0" encoding="UTF-8"?>
<svg version="1.1" xmlns="http://www.w3.org/2000/svg" width="512" height="512">
<path d="M0 0 C168.96 0 337.92 0 512 0 C512 168.96 512 337.92 512 512 C343.04 512 174.08 512 0 512 C0 343.04 0 174.08 0 0 Z " fill="#F7F6F6" transform="translate(0,0)"/>
<path d="M0 0 C168.96 0 337.92 0 512 0 C512 66.33 512 132.66 512 201 C510.02 198.525 510.02 198.525 508 196 C504.93218649 193.23896784 501.90017801 192.2486946 498 191 C497.97812622 189.16223999 497.97812622 189.16223999 497.95581055 187.28735352 C497.89749702 182.70796661 497.82026781 178.12905452 497.73754883 173.55004883 C497.7044542 171.57454174 497.67637496 169.59894361 497.65356445 167.62329102 C497.61973244 164.77060428 497.5674043 161.91874035 497.51171875 159.06640625 C497.50213387 157.75803551 497.50213387 157.75803551 497.49235535 156.42323303 C497.31925111 149.07557242 495.64769663 142.42719674 492 136 C489.9664052 134.73195434 489.9664052 134.73195434 488 134 C488 133.34 488 132.68 488 132 C478.87626644 128.22384093 469.6047553 128.57374688 459.9261322 128.60559082 C458.08425114 128.60069776 456.24237316 128.59450604 454.40050036 128.58713293 C449.35532106 128.57076364 444.31029833 128.57304519 439.26510179 128.5785079 C433.81786401 128.58118172 428.37066762 128.56663989 422.92344666 128.55441284 C412.25899517 128.53337338 401.59459806 128.52881707 390.93012827 128.53060073 C382.26291187 128.5319088 373.59571243 128.5281019 364.92849922 128.52067566 C362.4311495 128.51857646 359.93379978 128.51647886 357.43645006 128.51438284 C356.19343945 128.51333931 354.95042884 128.51229578 353.66975123 128.51122063 C332.84679531 128.49447744 312.02386428 128.49183871 291.20090359 128.49786407 C290.53905667 128.4980551 289.87720975 128.49824613 289.19530687 128.49844296 C287.85689403 128.49883005 286.51848118 128.49922038 285.18006834 128.49961393 C264.34713237 128.50558601 243.51430743 128.49013359 222.68139648 128.45800781 C199.26384954 128.42192678 175.84636813 128.40264223 152.42879111 128.40754652 C140.0335832 128.40979203 127.6384854 128.40453561 115.24329948 128.37965393 C104.69369631 128.35865706 94.14426367 128.35503315 83.59465354 128.37395352 C78.2122216 128.38312019 72.83010778 128.38422543 67.4477005 128.36359787 C62.5197518 128.34492065 57.59238249 128.34935502 52.66445608 128.37214369 C50.88264081 128.37633755 49.1007814 128.37210307 47.31901275 128.35854775 C34.25362377 128.03825563 34.25362377 128.03825563 23 134 C22.47270497 134.71591765 21.94540994 135.4318353 21.40213627 136.16944742 C20.70807881 137.07557095 20.70807881 137.07557095 20 138 C19.34 138 18.68 138 18 138 C14.63399157 149.2473306 14.45664183 160.1660477 14.3125 171.8125 C14.27925249 173.68036135 14.24475625 175.54820091 14.20898438 177.41601562 C14.12494349 181.94388824 14.05773997 186.47171877 14 191 C13.45005371 191.1868335 12.90010742 191.37366699 12.33349609 191.56616211 C11.61242676 191.82147705 10.89135742 192.07679199 10.1484375 192.33984375 C9.43349121 192.58855225 8.71854492 192.83726074 7.98193359 193.09350586 C5.10257729 194.410462 3.72826469 196.40760297 2 199 C1.01 199.99 1.01 199.99 0 201 C0 134.67 0 68.34 0 0 Z " fill="#F7F6F6" transform="translate(0,0)"/>
<path d="M0 0 C0.75232639 -0.00235223 1.50465277 -0.00470446 2.27977693 -0.00712797 C4.82706307 -0.01384016 7.37429845 -0.01335908 9.92159271 -0.01294994 C11.75585365 -0.01624721 13.59011387 -0.01997248 15.42437315 -0.02409142 C20.48565132 -0.03413553 25.54691763 -0.03783209 30.60820436 -0.04048073 C36.05899595 -0.04437676 41.50977809 -0.05395568 46.96056366 -0.0626936 C60.13601453 -0.08247972 73.3114662 -0.09252773 86.48692822 -0.10142139 C92.68796416 -0.10580148 98.88899923 -0.11116908 105.09003448 -0.11641026 C125.69874392 -0.13342601 146.30745282 -0.1479202 166.91616821 -0.155159 C172.26738231 -0.15706897 177.6185964 -0.15898763 182.96981049 -0.16094494 C183.63463696 -0.16118509 184.29946344 -0.16142524 184.98443618 -0.16167267 C206.53300567 -0.16956316 228.08152007 -0.19298819 249.63006551 -0.22550088 C272.40945983 -0.25980794 295.18882674 -0.27950991 317.96824789 -0.28280324 C330.3865131 -0.28496968 342.80469739 -0.29373786 355.22293854 -0.31926441 C365.79939587 -0.3409544 376.37575263 -0.34903024 386.95222968 -0.33929763 C392.34887115 -0.33474779 397.74530507 -0.33667898 403.14191818 -0.35605907 C408.08434308 -0.37365477 413.02640844 -0.37272207 417.96883696 -0.35716178 C419.75495033 -0.35478024 421.54108836 -0.35913755 423.32716399 -0.37099043 C433.47061628 -0.43412447 442.78441142 -0.44623547 451.21883392 5.95843983 C451.97873627 6.88076405 451.97873627 6.88076405 452.75399017 7.82172108 C453.54096283 8.72470936 453.54096283 8.72470936 454.34383392 9.64593983 C458.41431059 16.52364178 459.24899793 23.34002093 459.10945892 31.20062733 C459.10521408 32.12012669 459.10096924 33.03962605 459.09659576 33.98698902 C459.07995793 36.89054567 459.04233484 39.79337834 459.00399017 42.69672108 C458.98892404 44.67913285 458.97523903 46.66155562 458.96297455 48.6439867 C458.93010343 53.47433886 458.87842628 58.30415772 458.81649017 63.13422108 C459.73945892 63.25152576 460.66242767 63.36883045 461.61336517 63.48968983 C466.37025531 64.44686894 469.29022318 67.12232367 472.19149017 70.94672108 C473.56487328 75.75356196 473.31210324 79.77780637 471.62899017 84.38422108 C469.27749808 87.95200218 466.6320686 90.22643186 462.81649017 92.13422108 C460.16600903 92.23637821 457.54153283 92.27711352 454.89058399 92.27402878 C453.64171588 92.27845591 453.64171588 92.27845591 452.36761811 92.28297248 C449.5473688 92.29170944 446.72716027 92.29324828 443.9068985 92.29485035 C441.87663366 92.29957818 439.84636976 92.30472866 437.81610698 92.31026798 C432.21316624 92.32421315 426.61023202 92.33176869 421.00727832 92.33824098 C416.20744202 92.34460058 411.40761648 92.35467226 406.60778687 92.36480164 C390.79112929 92.3981663 374.97446602 92.4196943 359.15778568 92.43800148 C355.04130734 92.4427681 350.92482931 92.44777697 346.80835128 92.45280671 C321.26465908 92.48385131 295.72096429 92.51047417 270.17725849 92.52722549 C264.25744179 92.53116285 258.33762514 92.53517467 252.41780853 92.53925037 C251.68233217 92.53975204 250.94685581 92.54025371 250.18909228 92.54077058 C226.33994378 92.5571909 202.49089784 92.59564987 178.6417998 92.64653748 C154.13147177 92.69874078 129.62119835 92.7315374 105.11081359 92.73880303 C101.65003672 92.73983165 98.18925996 92.74106798 94.7284832 92.74242306 C94.04735497 92.7426811 93.36622675 92.74293913 92.66445828 92.74320499 C81.69571752 92.74790294 70.72711176 92.77285008 59.75842156 92.80517449 C48.73568017 92.83718486 37.71305736 92.84669531 26.69026635 92.83474254 C20.71671178 92.82890061 14.74358123 92.83288786 8.7700901 92.86291218 C3.30403379 92.89016246 -2.161295 92.88986053 -7.6273667 92.86740173 C-9.60724063 92.86416437 -11.5871623 92.87113059 -13.56695642 92.88919895 C-16.25499463 92.91224837 -18.94041766 92.89841795 -21.62839794 92.87530136 C-22.40037945 92.8907776 -23.17236097 92.90625383 -23.96773586 92.92219904 C-29.19743391 92.82266082 -31.91832723 91.33260119 -35.75771298 87.81129247 C-39.10392536 83.87536214 -39.62816687 80.41054242 -39.49600983 75.38031483 C-38.80308076 70.39988717 -35.97735436 67.76268133 -32.18350983 64.75922108 C-29.18350983 63.13422108 -29.18350983 63.13422108 -25.18350983 63.13422108 C-25.2070755 61.40305042 -25.2070755 61.40305042 -25.23111725 59.63690662 C-25.28589324 55.30755205 -25.32003134 50.97822737 -25.34830475 46.64862537 C-25.36328371 44.78366392 -25.38367406 42.91873703 -25.40982819 41.05389881 C-25.70860761 19.18441664 -25.70860761 19.18441664 -21.18350983 10.13422108 C-20.52350983 10.13422108 -19.86350983 10.13422108 -19.18350983 10.13422108 C-18.93600983 9.52965076 -18.68850983 8.92508045 -18.43350983 8.30218983 C-16.97546229 5.77338863 -15.68568638 4.90479087 -13.18350983 3.44672108 C-12.48225983 3.03035389 -11.78100983 2.6139867 -11.05850983 2.18500233 C-7.25705877 0.05460579 -4.29016957 -0.00899741 0 0 Z " fill="#FDE07D" transform="translate(39.183509826660156,127.86577892303467)"/>
<path d="M0 0 C0.83411697 -0.00551417 1.66823393 -0.01102833 2.52762717 -0.0167096 C5.32930295 -0.03033071 8.13009553 -0.01539354 10.93175507 -0.00063419 C12.95793819 -0.00452612 14.9841186 -0.01016568 17.01029253 -0.01740509 C22.58342231 -0.03219324 28.15627052 -0.02195845 33.72939134 -0.00766838 C39.73765103 0.00341839 45.74587048 -0.00849358 51.7541275 -0.01751041 C62.84570133 -0.03065389 73.937195 -0.02565009 85.02876078 -0.01143513 C95.27496252 0.00161195 105.52113179 0.00681353 115.76734161 0.00424671 C116.4467547 0.0040863 117.12616778 0.00392588 117.82616914 0.0037606 C120.58406495 0.00309703 123.34196074 0.00239462 126.09985653 0.00163526 C151.97587719 -0.00539025 177.85184065 0.01010743 203.72784675 0.03625872 C226.72173747 0.05937412 249.71556531 0.06476212 272.70946503 0.05452633 C278.59733579 0.05192436 284.48520655 0.04933936 290.37307739 0.04692841 C291.46034592 0.04648223 291.46034592 0.04648223 292.56957947 0.04602705 C311.77794013 0.03841374 330.98629563 0.04482291 350.19465399 0.05562443 C352.26127557 0.05677224 354.32789715 0.05791542 356.39451873 0.05905125 C357.76548482 0.0598065 359.13645091 0.06057214 360.507417 0.06134826 C370.74766909 0.06700893 380.9879049 0.06567505 391.22815704 0.06112003 C402.87072042 0.05601488 414.5132322 0.06215299 426.15578234 0.08201433 C432.09873063 0.09190196 438.04157969 0.09697555 443.98453331 0.08912182 C449.42122604 0.082084 454.85771821 0.08882518 460.29438442 0.10672545 C462.26468528 0.11078228 464.23500431 0.1097495 466.20529848 0.10320658 C468.87733669 0.09509049 471.54869355 0.10532702 474.22068787 0.12025452 C475.37607253 0.11014804 475.37607253 0.11014804 476.55479831 0.09983739 C481.31545312 0.15149613 484.56940702 0.97687436 488.61034393 3.50057125 C492.54555732 7.86121312 493.92214063 10.46037408 493.82518768 16.40682125 C493.35470038 20.99193384 491.39790924 23.78984159 488.04784393 26.81307125 C483.84765256 29.72089605 480.66415133 29.64617354 475.68443775 29.64037895 C474.43556964 29.64480609 474.43556964 29.64480609 473.16147187 29.64932266 C470.34122256 29.65805962 467.52101403 29.65959846 464.70075226 29.66120052 C462.67048742 29.66592836 460.64022352 29.67107883 458.60996073 29.67661816 C453.00702 29.69056333 447.40408578 29.69811886 441.80113208 29.70459116 C437.00129578 29.71095076 432.20147024 29.72102243 427.40164063 29.73115181 C411.58498305 29.76451647 395.76831978 29.78604448 379.95163944 29.80435166 C375.8351611 29.80911828 371.71868307 29.81412714 367.60220504 29.81915689 C342.05851284 29.85020148 316.51481805 29.87682434 290.97111225 29.89357567 C285.05129555 29.89751303 279.1314789 29.90152484 273.21166229 29.90560055 C272.47618593 29.90610222 271.74070957 29.90660388 270.98294604 29.90712075 C247.13379754 29.92354107 223.2847516 29.96200004 199.43565356 30.01288765 C174.92532553 30.06509096 150.41505211 30.09788757 125.90466735 30.1051532 C122.44389048 30.10618183 118.98311372 30.10741815 115.52233696 30.10877323 C114.84120873 30.10903127 114.16008051 30.10928931 113.45831204 30.10955516 C102.48957128 30.11425311 91.52096552 30.13920026 80.55227532 30.17152466 C69.52953393 30.20353503 58.50691112 30.21304548 47.48412011 30.20109271 C41.51056554 30.19525078 35.53743499 30.19923804 29.56394386 30.22926235 C24.09788755 30.25651263 18.63255876 30.2562107 13.16648706 30.2337519 C11.18661313 30.23051454 9.20669146 30.23748077 7.22689734 30.25554913 C4.53885913 30.27859855 1.8534361 30.26476812 -0.83454418 30.24165154 C-1.60652569 30.25712777 -2.37850721 30.272604 -3.1738821 30.28854921 C-8.40358015 30.18901099 -11.12447347 28.69895136 -14.96385922 25.17764265 C-18.3100716 21.24171231 -18.83431311 17.77689259 -18.70215607 12.746665 C-18.03682462 7.96459519 -15.38029174 5.3072049 -11.76557207 2.3638882 C-7.72838003 0.13558384 -4.48799662 -0.05622993 0 0 Z " fill="#5D525E" transform="translate(18.38965606689453,190.49942874908447)"/>
<path d="M0 0 C159.06 0 318.12 0 482 0 C482 6.6 482 13.2 482 20 C322.94 20 163.88 20 0 20 C0 13.4 0 6.8 0 0 Z " fill="#FCC16B" transform="translate(15,171)"/>
<path d="M0 0 C160.71 0 321.42 0 487 0 C487 0.33 487 0.66 487 1 C475.78 1 464.56 1 453 1 C453.433125 4.526875 453.433125 4.526875 453.875 8.125 C454.67550232 14.81286865 455.34023958 21.50532495 455.9296875 28.21484375 C456.95164393 39.63138937 458.08370343 51.03490702 459.25 62.4375 C459.40557877 63.96884583 459.40557877 63.96884583 459.56430054 65.53112793 C460.86711947 78.34695859 462.22735181 91.15505966 463.66015625 103.95703125 C463.86706589 105.81460304 463.86706589 105.81460304 464.07815552 107.70970154 C464.74976707 113.73650035 465.42846785 119.76233291 466.12011719 125.78686523 C469.4249975 154.95498764 469.4249975 154.95498764 466.0871582 159.74511719 C462.94243733 163.1425487 461.1770342 163.87159627 456.5625 164.375 C452.39002679 163.93579229 450.92952192 162.92952192 448 160 C445.71319096 156.56978643 445.25064791 153.59863608 444.625 149.625 C444.36593767 148.07529382 444.10545818 146.52582405 443.84375 144.9765625 C443.70710938 144.1609082 443.57046875 143.34525391 443.4296875 142.50488281 C442.71297658 138.32678395 441.92147846 134.16351799 441.125 130 C440.87580811 128.69289063 440.87580811 128.69289063 440.62158203 127.359375 C439.69694925 122.53912976 438.74713364 117.72463951 437.7734375 112.9140625 C437.56187012 111.86734375 437.35030273 110.820625 437.13232422 109.7421875 C436.7333635 107.77541897 436.33171111 105.80919275 435.92626953 103.84375 C434.53415243 96.99168663 433.31182761 90.11645991 432.125 83.2265625 C430.2023357 72.06641788 428.16403554 60.93047141 426.07275391 49.80078125 C425.49764829 46.73747361 424.92644847 43.67345404 424.35546875 40.609375 C422.42873504 30.31408735 420.44009886 20.04116009 418.1932373 9.8102417 C417.54258958 6.81131079 417 4.07913476 417 1 C302.82 1 188.64 1 71 1 C70.34 5.29 69.68 9.58 69 14 C68.51854756 16.56966893 68.0169869 19.13575797 67.484375 21.6953125 C67.20256794 23.06749804 66.92100272 24.43973327 66.63964844 25.81201172 C66.49458862 26.51453064 66.34952881 27.21704956 66.20007324 27.94085693 C63.17083881 42.64131177 60.47014064 57.37662247 58.04199219 72.18798828 C56.82522744 79.55456676 55.4019335 86.8161534 53.66503906 94.07861328 C52.72850913 98.19260636 52.09407791 102.3252279 51.5 106.5 C50.50633832 113.16032665 49.22411298 119.65815527 47.62109375 126.203125 C46.89421916 129.47634642 46.54363689 132.70112597 46.2421875 136.03515625 C45.86245475 139.11589133 44.85836733 142.02096044 44 145 C43.69766009 147.04011343 43.40688467 149.0819598 43.125 151.125 C42.38041029 155.77868568 41.65696769 158.77326381 38 162 C34.51171569 164.52599898 31.20331607 164.50729677 27 164 C24.02760759 162.21523759 21.57395973 160.14791945 20 157 C19.23784431 143.45367763 21.23489244 129.59997212 22.99291992 116.19477844 C25.11223343 100.0311775 26.68515384 83.81496228 28.27606201 67.59307861 C28.86752941 61.5695901 29.46495416 55.54668699 30.0612793 49.52367783 C30.27941841 47.31929019 30.49713779 45.11486136 30.71484375 42.91043091 C32.09685353 28.93537125 33.54420925 14.96760209 35 1 C23.45 1 11.9 1 0 1 C0 0.67 0 0.34 0 0 Z " fill="#EABD84" transform="translate(12,220)"/>
<path d="M0 0 C0.33 0 0.66 0 1 0 C1.0488031 0.54894424 1.0976062 1.09788849 1.14788818 1.66346741 C2.42048387 15.93164858 3.79241979 30.18709895 5.25 44.4375 C5.35371918 45.45839722 5.45743835 46.47929443 5.56430054 47.53112793 C6.86711947 60.34695859 8.22735181 73.15505966 9.66015625 85.95703125 C9.79809601 87.19541245 9.93603577 88.43379364 10.07815552 89.70970154 C10.74976707 95.73650035 11.42846785 101.76233291 12.12011719 107.78686523 C15.4249975 136.95498764 15.4249975 136.95498764 12.0871582 141.74511719 C8.94243733 145.1425487 7.1770342 145.87159627 2.5625 146.375 C-1.60997321 145.93579229 -3.07047808 144.92952192 -6 142 C-8.28680904 138.56978643 -8.74935209 135.59863608 -9.375 131.625 C-9.63406233 130.07529382 -9.89454182 128.52582405 -10.15625 126.9765625 C-10.29289062 126.1609082 -10.42953125 125.34525391 -10.5703125 124.50488281 C-11.28702342 120.32678395 -12.07852154 116.16351799 -12.875 112 C-13.04112793 111.12859375 -13.20725586 110.2571875 -13.37841797 109.359375 C-14.30305075 104.53912976 -15.25286636 99.72463951 -16.2265625 94.9140625 C-16.43812988 93.86734375 -16.64969727 92.820625 -16.86767578 91.7421875 C-17.2666365 89.77541897 -17.66828889 87.80919275 -18.07373047 85.84375 C-19.46135797 79.01378464 -20.67821951 72.16093272 -21.859375 65.29296875 C-24.20997387 51.63100616 -26.79100308 38.01473749 -29.37451172 24.39526367 C-29.97509858 21.22602388 -30.57356298 18.05638864 -31.171875 14.88671875 C-31.3561908 13.91925217 -31.54050659 12.95178558 -31.73040771 11.95500183 C-31.89768372 11.06839371 -32.06495972 10.18178558 -32.23730469 9.26831055 C-32.3851239 8.48940964 -32.53294312 7.71050873 -32.6852417 6.90800476 C-33 5 -33 5 -33 3 C-22.11 3 -11.22 3 0 3 C0 2.01 0 1.02 0 0 Z " fill="#EABD85" transform="translate(466,238)"/>
<path d="M0 0 C160.71 0 321.42 0 487 0 C487 0.33 487 0.66 487 1 C475.78 1 464.56 1 453 1 C453.33 3.64 453.66 6.28 454 9 C454 12.96 454 16.92 454 21 C443.11 21 432.22 21 421 21 C419 14 419 14 417 1 C302.82 1 188.64 1 71 1 C70.34 5.29 69.68 9.58 69 14 C68.01 17.465 68.01 17.465 67 21 C56.11 21 45.22 21 34 21 C34 9 34 9 35 1 C23.45 1 11.9 1 0 1 C0 0.67 0 0.34 0 0 Z " fill="#C7A086" transform="translate(12,220)"/>
<path d="M0 0 C23.1 0 46.2 0 70 0 C70 0.33 70 0.66 70 1 C58.78 1 47.56 1 36 1 C36.495 4.96 36.495 4.96 37 9 C37 12.96 37 16.92 37 21 C26.11 21 15.22 21 4 21 C2.82222853 16.87779987 1.70966973 12.97922431 0.875 8.8125 C0.70742188 7.99394531 0.53984375 7.17539063 0.3671875 6.33203125 C0 4 0 4 0 0 Z " fill="#CE966B" transform="translate(429,220)"/>
<path d="M0 0 C11.88 0 23.76 0 36 0 C36.495 5.94 36.495 5.94 37 12 C34 8 34 8 34 1 C24.1 1.33 14.2 1.66 4 2 C3.34 3.65 2.68 5.3 2 7 C0.5393715 4.35261084 0 3.10551666 0 0 Z " fill="#CC9B79" transform="translate(429,221)"/>
<path d="M0 0 C11.88 0 23.76 0 36 0 C35.67 2.31 35.34 4.62 35 7 C34.67 7 34.34 7 34 7 C33.505 4.525 33.505 4.525 33 2 C22.77 1.67 12.54 1.34 2 1 C2 3.64 2 6.28 2 9 C1.01 9.99 0.02 10.98 -1 12 C-0.67 8.04 -0.34 4.08 0 0 Z " fill="#CC9C79" transform="translate(47,221)"/>
<path d="M0 0 C0.7734375 0.495 0.7734375 0.495 1.5625 1 C5.92067002 2.78796719 10.55491427 2.42242743 15 1 C14.67 1.99 14.34 2.98 14 4 C12.22950311 4.05410687 10.45853151 4.09284119 8.6875 4.125 C7.20830078 4.15980469 7.20830078 4.15980469 5.69921875 4.1953125 C3 4 3 4 0 2 C0 1.34 0 0.68 0 0 Z " fill="#FCEFDF" transform="translate(35,381)"/>
<path d="M0 0 C0.33 0.99 0.66 1.98 1 3 C3.01508358 3.73323796 3.01508358 3.73323796 5 4 C5 4.66 5 5.32 5 6 C6.98 6 8.96 6 11 6 C11 6.33 11 6.66 11 7 C4.97463002 7.602537 4.97463002 7.602537 2.19921875 5.88671875 C0.74400545 4.65378147 -0.63479157 3.33191067 -2 2 C-1.34 1.34 -0.68 0.68 0 0 Z " fill="#E7C49C" transform="translate(35,377)"/>
<path d="M0 0 C0.33 0 0.66 0 1 0 C1.36463732 1.74784829 1.7163078 3.49840502 2.0625 5.25 C2.25972656 6.22453125 2.45695312 7.1990625 2.66015625 8.203125 C2.98397535 10.868119 2.85503199 12.48871723 2 15 C-0.35119399 11.47320901 -0.21443452 9.97120515 -0.125 5.8125 C-0.10695313 4.72582031 -0.08890625 3.63914062 -0.0703125 2.51953125 C-0.04710937 1.68808594 -0.02390625 0.85664063 0 0 Z " fill="#FAEEDA" transform="translate(435,253)"/>
<path d="M0 0 C1.65 0 3.3 0 5 0 C6.0625 1.8125 6.0625 1.8125 7 4 C6.67 4.99 6.34 5.98 6 7 C5.7525 6.38125 5.505 5.7625 5.25 5.125 C3.79371361 2.64931313 2.62187494 2.04874998 0 1 C0 0.67 0 0.34 0 0 Z " fill="#FBF2D7" transform="translate(488,133)"/>
</svg>
