<?xml version="1.0" encoding="UTF-8"?>
<svg version="1.1" xmlns="http://www.w3.org/2000/svg" width="512" height="512">
<path d="M0 0 C1.04893433 0.02145081 2.09786865 0.04290161 3.17858887 0.06500244 C165.54899125 3.48528933 165.54899125 3.48528933 194.421875 25.78515625 C197.21594978 29.38673846 197.37126411 32.24332366 197.25 36.625 C197.27900391 37.67300781 197.27900391 37.67300781 197.30859375 38.7421875 C197.27522968 42.27877854 196.78408702 44.39408888 194.7734375 47.3125 C186.96406482 53.04841641 178.00199728 55.63807748 168.6875 57.875 C167.19573242 58.25785156 167.19573242 58.25785156 165.67382812 58.6484375 C158.67284339 60.37259447 151.82006675 61.22593917 144.625 61.625 C144.68300781 62.50542969 144.74101562 63.38585937 144.80078125 64.29296875 C145.16321881 73.62314701 145.16321881 73.62314701 143.58203125 76.56640625 C141.7946868 78.32230183 139.85793088 79.50853456 137.625 80.625 C139.72756004 117.18900819 141.92438694 153.74622718 144.24007988 190.29737234 C144.48310364 194.13478626 144.7256263 197.97223179 144.96815157 201.80967724 C146.02310834 218.50089566 147.07958253 235.19201532 148.14501953 251.88256836 C148.71009842 260.73522232 149.27133608 269.58811115 149.82831883 278.44127828 C150.17537992 283.95470119 150.52691716 289.46781232 150.88205004 294.98072088 C151.10072893 298.39342245 151.3148582 301.80639873 151.52775764 305.21946526 C151.62586681 306.77829435 151.72574991 308.33701317 151.82770348 309.89559555 C152.5191236 320.48640355 152.73813299 331.0120755 152.625 341.625 C148.45935851 343.45675067 146.08485857 343.91340359 141.625 342.625 C139.67050897 339.69326345 139.32268394 338.75317986 138.97285271 335.43074322 C138.87830233 334.57155495 138.78375194 333.71236669 138.6863364 332.82714242 C138.59099743 331.88280038 138.49565845 330.93845834 138.39743042 329.96549988 C138.2356086 328.46117424 138.2356086 328.46117424 138.07051766 326.92645818 C137.70948667 323.55096643 137.36040949 320.17434426 137.01123047 316.79760742 C136.75548714 314.38321063 136.49902053 311.96889036 136.24188232 309.55464172 C135.61686744 303.66816973 134.99958318 297.78091709 134.38580714 291.89326545 C133.67073014 285.03722101 132.94678695 278.18212171 132.22243287 271.32705227 C130.93009744 259.09398539 129.64565871 246.86010231 128.36572266 234.62573242 C127.12382442 222.75503219 125.87669281 210.88489785 124.62353516 199.01538086 C124.5078305 197.91945038 124.5078305 197.91945038 124.38978837 196.80137988 C124.31278393 196.07202274 124.23577948 195.3426656 124.15644157 194.59120673 C124.00139678 193.1226724 123.84635385 191.65413787 123.69131279 190.18560314 C123.5766191 189.09924833 123.5766191 189.09924833 123.45960837 187.99094696 C122.26571558 176.68062764 121.07653136 165.36981268 119.88786455 154.05894312 C119.45705906 149.9601008 119.02557719 145.86133033 118.59360896 141.7626104 C117.84402209 134.64992809 117.09766022 127.53691476 116.35485077 120.42352104 C116.10759607 118.06030384 115.859284 115.697197 115.60984421 113.33420944 C115.26985849 110.11158591 114.93372679 106.8885832 114.59860229 103.66545105 C114.49880188 102.72780118 114.39900146 101.7901513 114.29617679 100.8240878 C113.84046111 96.40128333 113.51075834 92.07914082 113.625 87.625 C108.18 88.615 108.18 88.615 102.625 89.625 C102.71003658 90.95906261 102.71003658 90.95906261 102.79679108 92.32007599 C104.17664772 113.97015055 105.55370851 135.62040136 106.92766571 157.27085114 C107.59217057 167.74087649 108.2576182 178.21084033 108.92529297 188.68066406 C109.50730051 197.80717568 110.0875313 206.93379824 110.66563749 216.06055784 C110.97174144 220.89214539 111.27872892 225.72367311 111.58784485 230.55506897 C111.87894591 235.10533826 112.16766558 239.6557525 112.45458412 244.20628738 C112.56012727 245.87359273 112.66652956 247.54084395 112.77387047 249.20803452 C112.92072413 251.49096524 113.06443399 253.7740738 113.20739746 256.05725098 C113.28851524 257.33301247 113.36963303 258.60877396 113.45320892 259.92319489 C113.63587296 263.85929371 113.78795195 267.68653253 113.625 271.625 C111.625 273.625 111.625 273.625 108.0625 273.8125 C104.625 273.625 104.625 273.625 103.625 272.625 C103.38795889 271.27004431 103.21129298 269.90446708 103.05932617 268.53735352 C102.95754059 267.63978333 102.855755 266.74221313 102.75088501 265.81744385 C102.64102264 264.80647644 102.53116028 263.79550903 102.41796875 262.75390625 C102.29650482 261.66599792 102.17504089 260.5780896 102.04989624 259.45721436 C101.63248272 255.70117269 101.22226619 251.94438323 100.8125 248.1875 C100.59257934 246.19042213 100.37265593 244.19334456 100.15257549 242.19628429 C96.87581375 212.42791061 93.74485592 182.6434324 90.60168839 152.86072922 C90.18656929 148.92868427 89.77085942 144.99670211 89.35507202 141.06472778 C88.69309029 134.80189088 88.03350391 128.53880599 87.37578201 122.27552032 C87.12926992 119.93072589 86.88207274 117.58600337 86.63416672 115.2413559 C86.29261964 112.00917184 85.95369414 108.77672356 85.61547852 105.54418945 C85.51425281 104.59143914 85.4130271 103.63868883 85.30873394 102.6570673 C85.21789437 101.78352321 85.12705481 100.90997911 85.03346252 100.00996399 C84.95406213 99.25480153 84.87466173 98.49963907 84.79285526 97.7215929 C84.63061303 95.69510943 84.625 93.65796774 84.625 91.625 C83.14 92.12 83.14 92.12 81.625 92.625 C78.87807056 92.90594432 76.14355195 93.14331433 73.390625 93.34375 C72.14705231 93.43795227 72.14705231 93.43795227 70.87835693 93.53405762 C69.10980073 93.66700816 67.3410975 93.7980149 65.57226562 93.92724609 C62.9539829 94.11920925 60.33637519 94.31882673 57.71875 94.51953125 C36.67111703 96.10282565 15.66725704 96.78564176 -5.4375 96.79296875 C-7.68774433 96.79620028 -9.93798847 96.79956558 -12.18823242 96.80305481 C-16.87744633 96.80898783 -21.56664199 96.81090102 -26.25585938 96.81030273 C-30.97334667 96.81022192 -35.69073593 96.81710366 -40.40820312 96.83081055 C-76.85699772 96.93494462 -113.0849652 96.26562249 -149.375 92.625 C-149.46554657 93.50842575 -149.55609314 94.3918515 -149.64938354 95.30204773 C-154.09233753 138.62938597 -158.58188355 181.95182379 -163.20904541 225.25991821 C-163.65415355 229.4265223 -164.09720229 233.5933375 -164.53851318 237.76034546 C-165.05917132 242.6749372 -165.58416346 247.58904618 -166.11265182 252.5028019 C-166.30705563 254.31666532 -166.49997052 256.13068899 -166.69133377 257.94487572 C-166.95223208 260.41537156 -167.2185401 262.88522339 -167.48632812 265.35498047 C-167.56212034 266.08451274 -167.63791256 266.81404501 -167.71600151 267.56568432 C-168.26081771 272.51081771 -168.26081771 272.51081771 -169.375 273.625 C-175.90042373 273.86228814 -175.90042373 273.86228814 -178.375 272.625 C-178.51806766 263.30102824 -178.06887334 254.04951833 -177.47290039 244.74975586 C-177.37568629 243.18951854 -177.27879727 241.62926094 -177.1822052 240.06898499 C-176.92108176 235.86639353 -176.65534287 231.66410582 -176.38864064 227.46186519 C-176.10898984 223.04427881 -175.83337694 218.62644031 -175.55723572 214.20863342 C-175.09317303 206.79379504 -174.62627224 199.37913982 -174.1574707 191.96459961 C-173.61697045 183.41580397 -173.08013036 174.86678495 -172.54544073 166.31762403 C-171.97394416 157.18022374 -171.40007057 148.04297395 -170.8253448 138.90577626 C-170.66083022 136.28806771 -170.49672032 133.67033403 -170.33268929 131.05259514 C-170.07398797 126.92626692 -169.81366107 122.80004418 -169.55212212 118.67389488 C-169.45687314 117.16757226 -169.36213152 115.66121746 -169.26795959 114.15482712 C-168.75560044 105.96520932 -168.16279839 97.79342294 -167.375 89.625 C-172.82 89.13 -172.82 89.13 -178.375 88.625 C-178.49154938 90.01400418 -178.60809875 91.40300837 -178.72817993 92.83410358 C-179.92269898 106.91059287 -181.29412089 120.96137744 -182.7734375 135.01049805 C-183.00709009 137.24380933 -183.24058541 139.47713708 -183.47393799 141.71047974 C-184.09988177 147.6949596 -184.72856071 153.67914863 -185.35822296 159.66323829 C-185.75220819 163.40770558 -186.14577625 167.15221652 -186.53924561 170.89673805 C-187.63232925 181.29737566 -188.72625833 191.69792357 -189.82327271 202.09814739 C-190.10549444 204.77384575 -190.38771453 207.44954427 -190.66992188 210.12524414 C-190.74004101 210.79005792 -190.81016014 211.45487169 -190.88240409 212.13983134 C-192.02447167 222.96976521 -193.1597604 233.80039866 -194.29229522 244.63133314 C-195.45948788 255.79269981 -196.63265404 266.9534265 -197.81137276 278.11358291 C-198.47137555 284.36386633 -199.12880469 290.61439529 -199.77996826 296.86560631 C-200.39042009 302.72453343 -201.00820887 308.58263986 -201.63173676 314.44018936 C-201.8593918 316.59100493 -202.0843659 318.74210616 -202.30649567 320.89349937 C-202.60942136 323.82346474 -202.92188173 326.75225877 -203.23681641 329.68095398 C-203.32300924 330.53685912 -203.40920208 331.39276427 -203.49800682 332.27460593 C-203.58435701 333.05911685 -203.67070721 333.84362776 -203.75967407 334.65191174 C-203.83073679 335.3274973 -203.90179951 336.00308287 -203.97501564 336.69914073 C-204.44662409 338.96985827 -205.1387061 340.66143923 -206.375 342.625 C-209.69695293 343.65849647 -211.80617344 343.76404649 -215.1875 342.9375 C-217.375 341.625 -217.375 341.625 -218.01964563 339.82360864 C-218.39521273 337.49994208 -218.39637493 335.48306478 -218.2481699 333.13476181 C-218.19442662 332.23504835 -218.14068334 331.33533489 -218.08531147 330.40835738 C-217.98755945 328.93171028 -217.98755945 328.93171028 -217.88783264 327.42523193 C-217.82335023 326.37642483 -217.75886782 325.32761773 -217.69243139 324.24702859 C-217.4741348 320.72125498 -217.24692278 317.19611209 -217.01977539 313.67089844 C-216.86175468 311.14820645 -216.70428181 308.6254801 -216.5473175 306.10272217 C-216.20777909 300.66554832 -215.86441908 295.22863714 -215.51759529 289.79192352 C-215.01615244 281.93134078 -214.52158209 274.07033753 -214.02869099 266.20921448 C-213.2288319 253.45524752 -212.4234116 240.70163808 -211.61450195 227.94824219 C-210.82870789 215.55910206 -210.04552806 203.16980124 -209.26586914 190.78027344 C-209.21781449 190.01665346 -209.16975984 189.25303349 -209.12024898 188.46627352 C-208.87919038 184.63543651 -208.63818323 180.80459626 -208.39720166 176.97375441 C-206.39777811 145.19033041 -204.38924013 113.40748856 -202.375 81.625 C-203.78845703 81.18994141 -203.78845703 81.18994141 -205.23046875 80.74609375 C-208.62197125 79.53694938 -210.11698535 78.38479568 -212.375 75.625 C-213.42476964 72.47569107 -213.47631595 70.23685544 -213.4375 66.9375 C-213.42847656 65.94363281 -213.41945312 64.94976562 -213.41015625 63.92578125 C-213.39855469 63.16652344 -213.38695312 62.40726563 -213.375 61.625 C-213.92542969 61.61082031 -214.47585937 61.59664062 -215.04296875 61.58203125 C-230.24065706 60.71022587 -253.464683 57.14144573 -264.375 45.625 C-265.42836511 42.46490467 -265.57532888 40.0696864 -265.625 36.75 C-265.66367187 35.20699219 -265.66367187 35.20699219 -265.703125 33.6328125 C-265.31672936 30.09085245 -264.57271876 28.42293607 -262.375 25.625 C-219.73811011 -7.22734632 -121.23847079 1.05005289 -69.8125 0 C-68.80626587 -0.02064514 -67.80003174 -0.04129028 -66.76330566 -0.06256104 C-44.50281142 -0.50386445 -22.25975854 -0.45751459 0 0 Z " fill="#E6772B" transform="translate(290.375,84.375)"/>
<path d="M0 0 C1.04893433 0.02145081 2.09786865 0.04290161 3.17858887 0.06500244 C169.56229975 3.56982855 169.56229975 3.56982855 194.875 26.125 C196.91035222 29.03264603 197.09060523 30.15704378 196.625 33.625 C172.91689776 59.10967838 105.78261918 56.29284403 73.59716797 58.35986328 C70.07642662 58.5948679 66.56297454 58.8730212 63.046875 59.16796875 C55.45679825 59.76281537 47.8583679 59.93742042 40.25 60.125 C37.45041495 60.19437369 34.65098172 60.26800827 31.8515625 60.34375 C30.63033691 60.37404297 29.40911133 60.40433594 28.15087891 60.43554688 C24.31635108 60.56382938 20.49971291 60.84876747 16.67358398 61.12988281 C8.31834953 61.69910592 -0.00668435 61.80573395 -8.37890625 61.828125 C-10.00401328 61.83506863 -11.62912008 61.84206364 -13.25422668 61.84910583 C-18.48198695 61.86841802 -23.7097083 61.87303577 -28.9375 61.875 C-29.8319709 61.87573643 -30.7264418 61.87647285 -31.64801788 61.8772316 C-64.87534406 61.89948741 -97.91264772 60.9205377 -131.07928467 58.83068848 C-134.27790263 58.63105993 -137.47691461 58.4403396 -140.67626953 58.25292969 C-240.73403389 52.36044871 -240.73403389 52.36044871 -261.75 36.875 C-263.91625041 33.87557635 -264.09507133 31.26407275 -264.375 27.625 C-226.05937347 -7.9975154 -119.11020126 1.00659634 -69.8125 0 C-68.80626587 -0.02064514 -67.80003174 -0.04129028 -66.76330566 -0.06256104 C-44.50281142 -0.50386445 -22.25975854 -0.45751459 0 0 Z " fill="#FFB86C" transform="translate(290.375,84.375)"/>
<path d="M0 0 C0.8353125 1.1446875 0.8353125 1.1446875 1.6875 2.3125 C9.33893177 11.20470448 23.74576203 13.77146566 34.75 16.0625 C36.51259155 16.43701294 36.51259155 16.43701294 38.31079102 16.8190918 C52.04020983 19.60548537 65.92551882 21.14738593 79.84741211 22.61450195 C83 23 83 23 85.36868286 23.49603271 C88.0133682 24.00256037 90.56834857 24.26122108 93.25366211 24.44897461 C94.28799881 24.52258713 95.32233551 24.59619965 96.38801575 24.67204285 C97.50649399 24.74804214 98.62497223 24.82404144 99.77734375 24.90234375 C100.95306442 24.98442581 102.1287851 25.06650787 103.34013367 25.15107727 C116.68023247 26.07399846 130.02429079 26.93826149 143.37017822 27.77288818 C145.62347498 27.91387316 147.87670358 28.05595762 150.12982178 28.19976807 C178.55634326 30.00954147 206.96386502 30.17915432 235.4375 30.1875 C236.34012825 30.18808914 237.2427565 30.18867828 238.17273712 30.18928528 C243.43620703 30.19221859 248.69959612 30.18810686 253.96304893 30.17401314 C255.57977703 30.17005768 257.19650932 30.1675034 258.81324196 30.16651726 C267.782922 30.15788246 276.66155199 29.9263694 285.60847473 29.23344421 C290.49402294 28.89716397 295.37813436 28.81152827 300.27319336 28.70922852 C317.23501725 28.34997815 334.03120088 27.12730338 350.91835022 25.5451355 C356.26135951 25.05051541 361.60712363 24.67585068 366.96191406 24.33056641 C398.11543899 22.26511223 434.86797575 19.4755186 462 3 C462.77057276 12.77771217 462.77057276 12.77771217 460.1875 16.875 C452.27821474 22.14785684 443.55251702 24.98819637 434.375 27.1875 C432.8122937 27.57083496 432.8122937 27.57083496 431.21801758 27.96191406 C423.81616156 29.71718695 416.52239007 30.91339523 408.94921875 31.578125 C405.8566281 31.90849077 402.92187124 32.36557475 399.875 32.94921875 C393.38803039 34.16695302 386.87470838 34.88236937 380.3125 35.5625 C379.07371094 35.69325928 377.83492188 35.82401855 376.55859375 35.95874023 C369.06166138 36.73328572 361.59140363 37.35697049 354.06396484 37.73510742 C350.54427668 37.9402965 347.05543888 38.30077497 343.55226135 38.6925354 C330.41231218 40.14069429 317.27001107 40.70048147 304.0625 41.125 C302.16639984 41.18704117 302.16639984 41.18704117 300.23199463 41.25033569 C225.91676528 43.59087865 150.90518089 44.03419991 77 35 C76.20891846 34.9041864 75.41783691 34.8083728 74.6027832 34.70965576 C12.51370551 27.15335581 12.51370551 27.15335581 1 15 C-0.09506492 11.71480525 -0.09960608 9.26336585 -0.0625 5.8125 C-0.05347656 4.72582031 -0.04445313 3.63914062 -0.03515625 2.51953125 C-0.02355469 1.68808594 -0.01195313 0.85664062 0 0 Z " fill="#FE9245" transform="translate(25,115)"/>
<path d="M0 0 C0.75736851 2.75560532 1.17801637 5.34268597 1.35730839 8.19287395 C1.43867136 9.44311683 1.43867136 9.44311683 1.52167803 10.71861714 C1.57712941 11.62919733 1.6325808 12.53977752 1.68971252 13.47795105 C1.75182023 14.4494267 1.81392794 15.42090234 1.87791771 16.42181665 C2.08567216 19.68618799 2.28806648 22.95086953 2.49047852 26.21557617 C2.63810156 28.55310466 2.78603803 30.89061337 2.93426514 33.22810364 C3.33652902 39.58808842 3.73399368 45.94836472 4.13033032 52.3087213 C4.50387122 58.29594378 4.8802197 64.28298967 5.25628995 70.27005366 C6.04735712 82.86700748 6.83359644 95.46425924 7.61835425 108.06160746 C8.33443225 119.55412818 9.05639912 131.04626987 9.78121663 142.53824242 C10.526593 154.35699839 11.26800269 166.17599714 12.00517601 177.99526769 C12.41861364 184.6229397 12.83364564 191.25050432 13.25262642 197.8778286 C13.64726126 204.1229281 14.03669147 210.36833163 14.42227173 216.61399651 C14.56394775 218.8951932 14.70739326 221.17628086 14.85282707 223.45724106 C15.65074422 235.99017405 16.20877865 248.44029671 16 261 C11.83435851 262.83175067 9.45985857 263.28840359 5 262 C3.04497945 259.06746917 2.69755733 258.12660754 2.34785271 254.80294991 C2.25330233 253.94314494 2.15875194 253.08333998 2.0613364 252.19748032 C1.96599743 251.25245616 1.87065845 250.30743201 1.77243042 249.33377075 C1.6106086 247.82838676 1.6106086 247.82838676 1.44551766 246.29259098 C1.08448828 242.91476455 0.73541137 239.53580857 0.38623047 236.15673828 C0.13048859 233.74071887 -0.12597804 231.32477608 -0.38311768 228.90890503 C-1.00811555 223.01875588 -1.62539403 217.12782762 -2.23919286 211.23650374 C-2.95420137 204.37720269 -3.67816319 197.51885573 -4.40256713 190.66054164 C-5.6948601 178.42299644 -6.97933307 166.18464319 -8.25927734 153.94580078 C-9.50144285 142.06829349 -10.74855135 130.19131986 -12.00146484 118.31494141 C-12.1171695 117.21816282 -12.1171695 117.21816282 -12.23521163 116.09922709 C-12.3906071 114.62625007 -12.54600324 113.15327312 -12.70140003 111.68029623 C-12.7780548 110.95369416 -12.85470957 110.22709208 -12.93368721 109.47847176 C-13.01014967 108.75371183 -13.08661213 108.0289519 -13.16539163 107.28222955 C-14.35887366 95.96800481 -15.54831116 84.65335444 -16.73713545 73.33863948 C-17.09635489 69.91997147 -17.4557932 66.50132673 -17.81570673 63.08273172 C-18.63677325 55.28392983 -19.45550564 47.48488939 -20.27014923 39.68541336 C-20.51758574 37.32018267 -20.76590312 34.95504395 -21.01515579 32.59000397 C-21.35466038 29.36698277 -21.6909561 26.14364275 -22.02639771 22.92019653 C-22.12619812 21.97963382 -22.22599854 21.0390711 -22.32882321 20.07000649 C-23.27317526 10.92594338 -23.27317526 10.92594338 -23 8 C-19.22016948 4.87365688 -14.44563231 3.70034325 -9.8125 2.3125 C-9.08869141 2.08755859 -8.36488281 1.86261719 -7.61914062 1.63085938 C-2.29034479 0 -2.29034479 0 0 0 Z " fill="#E87B2F" transform="translate(427,165)"/>
<path d="M0 0 C0.54414551 0.14622803 1.08829102 0.29245605 1.64892578 0.44311523 C4.14018041 1.11082233 6.6325706 1.77419218 9.125 2.4375 C10.40890625 2.78264648 10.40890625 2.78264648 11.71875 3.13476562 C16.12947383 4.30530387 20.47452542 5.35456346 25 6 C24.88341367 6.90595677 24.88341367 6.90595677 24.76447207 7.83021569 C22.81568115 23.03572094 21.06879405 38.25123064 19.48803711 53.49902344 C19.25461839 55.73252211 19.02096337 57.96599609 18.78709412 60.19944763 C18.28989777 64.95108107 17.79405314 69.70285279 17.2992382 74.4547348 C16.51649577 81.96883469 15.72887219 89.4824182 14.94032288 96.99591064 C13.83583357 107.52240453 12.73187279 118.04895333 11.62963867 128.57568359 C11.56008504 129.23993187 11.49053141 129.90418014 11.4188701 130.58855715 C10.28566428 141.41220447 9.15659511 152.23628043 8.02856927 163.06046864 C6.86572917 174.21733003 5.69682611 185.37354604 4.52295691 196.52925324 C3.86587388 202.7761249 3.21172868 209.02327407 2.56446648 215.27117157 C1.95792293 221.12598412 1.34423703 226.98000273 0.72496986 232.83348274 C0.49891641 234.98268737 0.27555379 237.13217693 0.05504608 239.28195763 C-0.24564517 242.20967399 -0.55586892 245.13622618 -0.86854553 248.06268311 C-0.99681161 249.34551764 -0.99681161 249.34551764 -1.12766892 250.65426803 C-1.25626916 251.83010935 -1.25626916 251.83010935 -1.38746738 253.02970505 C-1.49324835 254.04227029 -1.49324835 254.04227029 -1.60116631 255.0752914 C-2.07170863 257.34605454 -2.76375857 259.03663417 -4 261 C-7.32195293 262.03349647 -9.43117344 262.13904649 -12.8125 261.3125 C-15 260 -15 260 -15.64464563 258.19860864 C-16.02021273 255.87494208 -16.02137493 253.85806478 -15.8731699 251.50976181 C-15.81942662 250.61004835 -15.76568334 249.71033489 -15.71031147 248.78335738 C-15.64514346 247.79892598 -15.57997544 246.81449459 -15.51283264 245.80023193 C-15.44835023 244.75142483 -15.38386782 243.70261773 -15.31743139 242.62202859 C-15.0991348 239.09625498 -14.87192278 235.57111209 -14.64477539 232.04589844 C-14.48675468 229.52320645 -14.32928181 227.0004801 -14.1723175 224.47772217 C-13.83277909 219.04054832 -13.48941908 213.60363714 -13.14259529 208.16692352 C-12.64115244 200.30634078 -12.14658209 192.44533753 -11.65369099 184.58421448 C-10.8538319 171.83024752 -10.0484116 159.07663808 -9.23950195 146.32324219 C-8.45370789 133.93410206 -7.67052806 121.54480124 -6.89086914 109.15527344 C-6.81878716 108.00984348 -6.81878716 108.00984348 -6.74524898 106.84127352 C-6.50419038 103.01043651 -6.26318323 99.17959626 -6.02220166 95.34875441 C-4.02277811 63.56533041 -2.01424013 31.78248856 0 0 Z " fill="#E87B2F" transform="translate(88,166)"/>
<path d="M0 0 C1.04893433 0.02145081 2.09786865 0.04290161 3.17858887 0.06500244 C169.56229975 3.56982855 169.56229975 3.56982855 194.875 26.125 C196.91035222 29.03264603 197.09060523 30.15704378 196.625 33.625 C172.91689776 59.10967838 105.78261918 56.29284403 73.59716797 58.35986328 C70.07642662 58.5948679 66.56297454 58.8730212 63.046875 59.16796875 C55.45679825 59.76281537 47.8583679 59.93742042 40.25 60.125 C37.45041495 60.19437369 34.65098172 60.26800827 31.8515625 60.34375 C30.63033691 60.37404297 29.40911133 60.40433594 28.15087891 60.43554688 C24.31635108 60.56382938 20.49971291 60.84876747 16.67358398 61.12988281 C8.31834953 61.69910592 -0.00668435 61.80573395 -8.37890625 61.828125 C-10.00401328 61.83506863 -11.62912008 61.84206364 -13.25422668 61.84910583 C-18.48198695 61.86841802 -23.7097083 61.87303577 -28.9375 61.875 C-29.8319709 61.87573643 -30.7264418 61.87647285 -31.64801788 61.8772316 C-64.87534406 61.89948741 -97.91264772 60.9205377 -131.07928467 58.83068848 C-134.27790263 58.63105993 -137.47691461 58.4403396 -140.67626953 58.25292969 C-240.73403389 52.36044871 -240.73403389 52.36044871 -261.75 36.875 C-264.02788647 33.72100334 -264.44417911 31.4990302 -264.375 27.625 C-262.0625 25.1875 -262.0625 25.1875 -259.375 23.625 C-258.715 23.625 -258.055 23.625 -257.375 23.625 C-257.560625 24.49125 -257.74625 25.3575 -257.9375 26.25 C-257.30844359 30.02433847 -257.03699317 30.41912141 -254.125 32.625 C-218.19048246 53.9628608 -162.00638053 51.8306131 -121.375 54.625 C-120.47440857 54.68772095 -119.57381714 54.75044189 -118.64593506 54.81506348 C-59.21949529 58.88955656 1.75219959 58.67074383 61.18267822 54.78320312 C63.69349956 54.62056289 66.20477375 54.46760193 68.71630859 54.31640625 C106.65792541 52.00348118 145.95161854 49.14024724 182.625 38.625 C183.42453138 35.33803767 183.72158936 33.91476808 182.625 30.625 C180.49173164 29.58526816 180.49173164 29.58526816 177.625 28.625 C176.31131348 27.99988324 174.9989572 27.37196781 173.6875 26.7421875 C168.15797062 24.27849722 162.52787277 22.95477847 156.625 21.6875 C154.86446289 21.30682373 154.86446289 21.30682373 153.06835938 20.91845703 C113.61776229 12.63838284 73.16807488 9.50816202 32.95581055 7.73187256 C31.3582509 7.65862109 29.76091888 7.58027881 28.16381836 7.49761963 C4.04569924 6.25161761 -20.1068211 6.38076157 -44.25 6.375 C-45.38031773 6.37441086 -46.51063545 6.37382172 -47.67520523 6.37321472 C-84.33628158 6.35974305 -120.80326721 6.8791226 -157.375 9.625 C-158.86939606 9.73391571 -158.86939606 9.73391571 -160.39398193 9.84503174 C-180.71181636 11.32983654 -200.87108581 13.47024397 -221 16.625 C-221.76552185 16.7446109 -222.5310437 16.8642218 -223.31976318 16.98745728 C-234.13391972 18.70229161 -244.74820049 20.99376103 -255.375 23.625 C-255.375 22.965 -255.375 22.305 -255.375 21.625 C-248.94411125 18.8832008 -242.63815427 16.6962323 -235.8125 15.1875 C-234.87962158 14.98068604 -233.94674316 14.77387207 -232.9855957 14.56079102 C-157.26784011 -1.58737214 -77.05397992 -1.58372427 0 0 Z " fill="#FFCC8A" transform="translate(290.375,84.375)"/>
<path d="M0 0 C2.62538284 0.14053872 5.25017427 0.28718947 7.875 0.4375 C8.99455078 0.49647461 8.99455078 0.49647461 10.13671875 0.55664062 C15.7734375 0.88671875 15.7734375 0.88671875 18 2 C14.80025992 34.81281776 11.336619 67.59801997 7.85638618 100.38202477 C6.90167717 109.37553107 5.95011169 118.36935718 5.00284225 127.36365026 C4.32728475 133.77578844 3.64838108 140.18756678 2.96690148 146.59907824 C2.56291934 150.40058097 2.16037803 154.202223 1.76140785 158.00425529 C1.32144837 162.19598788 0.87457321 166.3869542 0.42700195 170.57788086 C0.23142952 172.45590645 0.23142952 172.45590645 0.03190613 174.37187195 C-0.08990021 175.50183594 -0.21170654 176.63179993 -0.33720398 177.79600525 C-0.44170207 178.7829132 -0.54620016 179.76982115 -0.65386486 180.7866354 C-1 183 -1 183 -2 184 C-8.52542373 184.23728814 -8.52542373 184.23728814 -11 183 C-11.14306766 173.67602824 -10.69387334 164.42451833 -10.09790039 155.12475586 C-10.00068629 153.56451854 -9.90379727 152.00426094 -9.8072052 150.44398499 C-9.54608176 146.24139353 -9.28034287 142.03910582 -9.01364064 137.83686519 C-8.73398984 133.41927881 -8.45837694 129.00144031 -8.18223572 124.58363342 C-7.71817303 117.16879504 -7.25127224 109.75413982 -6.7824707 102.33959961 C-6.24197045 93.79080397 -5.70513036 85.24178495 -5.17044073 76.69262403 C-4.59894416 67.55522374 -4.02507057 58.41797395 -3.4503448 49.28077626 C-3.28583022 46.66306771 -3.12172032 44.04533403 -2.95768929 41.42759514 C-2.69898797 37.30126692 -2.43866107 33.17504418 -2.17712212 29.04889488 C-2.08187314 27.54257226 -1.98713152 26.03621746 -1.89295959 24.52982712 C-1.38065475 16.34107746 -0.80434503 8.1660708 0 0 Z " fill="#DE590D" transform="translate(123,174)"/>
<path d="M0 0 C1.21738609 0.00296082 1.21738609 0.00296082 2.45936584 0.00598145 C3.38814796 0.00978821 3.38814796 0.00978821 4.33569336 0.01367188 C5.77298779 22.56209403 7.20739019 45.1106985 8.63835907 67.65952301 C9.30286393 78.12954837 9.96831156 88.59951221 10.63598633 99.06933594 C11.21799386 108.19584756 11.79822466 117.32247011 12.37633085 126.44922972 C12.6824348 131.28081727 12.98942228 136.11234498 13.29853821 140.94374084 C13.58963927 145.49401014 13.87835894 150.04442438 14.16527748 154.59495926 C14.27082063 156.2622646 14.37722292 157.92951582 14.48456383 159.59670639 C14.63141749 161.87963712 14.77512735 164.16274567 14.91809082 166.44592285 C14.9992086 167.72168434 15.08032639 168.99744583 15.16390228 170.31186676 C15.34656632 174.24796559 15.4986453 178.0752044 15.33569336 182.01367188 C13.33569336 184.01367188 13.33569336 184.01367188 9.77319336 184.20117188 C6.33569336 184.01367188 6.33569336 184.01367188 5.33569336 183.01367188 C5.09865224 181.65871619 4.92198634 180.29313895 4.77001953 178.92602539 C4.66823898 178.02845016 4.56645844 177.13087494 4.46159363 176.20610046 C4.35172623 175.19513809 4.24185883 174.18417572 4.12866211 173.14257812 C4.00715286 172.05471512 3.88564362 170.96685211 3.76045227 169.84602356 C3.3429097 166.08995383 2.93267724 162.3331283 2.52319336 158.57617188 C2.30377798 156.57856228 2.08436136 154.58095281 1.86487389 152.58335114 C0.78664155 142.75974666 -0.27268723 132.93411617 -1.33081818 123.10832977 C-1.68657288 119.80704881 -2.04303174 116.50584437 -2.39959717 113.20465088 C-4.05440867 97.87879204 -5.69730106 82.55170037 -7.32894897 67.22335815 C-7.88605939 61.99151117 -8.44651047 56.7600379 -9.00967407 51.52883911 C-9.68282437 45.2729701 -10.34841814 39.01634076 -11.00840187 32.75906944 C-11.25658997 30.4176848 -11.5073792 28.07657431 -11.76086998 25.73575783 C-12.11007204 22.5066674 -12.44988265 19.27672116 -12.78735352 16.04638672 C-12.8921745 15.09723168 -12.99699549 14.14807665 -13.10499287 13.17015934 C-13.5411515 8.90476184 -13.9031909 5.19596249 -12.66430664 1.01367188 C-8.39014457 0.39197557 -4.32121158 -0.01362621 0 0 Z " fill="#DD590D" transform="translate(388.664306640625,173.986328125)"/>
<path d="M0 0 C5.82758555 0.54220937 11.62422167 1.19456683 17.42089844 2.00195312 C33.23497581 4.18359905 49.08329205 5.8109666 65 7 C66.38019318 7.10341705 66.38019318 7.10341705 67.78826904 7.20892334 C152.43195054 13.42801131 239.59782404 12.93285805 324 4 C324.73023376 3.92289795 325.46046753 3.8457959 326.21282959 3.76635742 C334.1517104 2.92277279 342.08003293 2.00599665 350 1 C351.55465709 0.80574607 353.10934206 0.61171501 354.6640625 0.41796875 C355.76492188 0.28003906 356.86578125 0.14210937 358 0 C358 1.65 358 3.3 358 5 C337.92639619 9.88839056 316.93331289 10.90202366 296.38745117 12.35375977 C294.88468628 12.46095337 294.88468628 12.46095337 293.3515625 12.5703125 C292.48354004 12.62977051 291.61551758 12.68922852 290.72119141 12.75048828 C288.7582219 12.93047705 286.80149823 13.18379929 284.85307312 13.48260498 C280.77152519 14.03067986 276.73935427 14.31997725 272.62963867 14.52783203 C271.45208527 14.58985904 271.45208527 14.58985904 270.25074291 14.65313911 C262.14549963 15.06644734 254.03859849 15.3446371 245.92578125 15.5546875 C244.73761527 15.5860914 244.73761527 15.5860914 243.52544594 15.61812973 C223.18692998 16.14130408 202.84719899 16.15258225 182.50317383 16.13037109 C177.22866234 16.1246559 171.95420112 16.12808013 166.67969131 16.13380909 C147.52028932 16.15148253 128.36680284 16.13548838 109.21484375 15.55078125 C107.92337936 15.5115152 106.63191498 15.47224915 105.30131531 15.43179321 C96.12897264 15.11470104 87.02230006 14.42696265 77.890625 13.52734375 C72.27963629 12.99420341 66.66448939 12.66892632 61.0378418 12.34936523 C48.31838981 11.62002248 35.70887082 10.53283976 23.0625 9 C22.00908417 8.87434662 22.00908417 8.87434662 20.93438721 8.74615479 C13.82652403 7.89024724 6.89066208 6.97127498 0 5 C0 3.35 0 1.7 0 0 Z " fill="#C5521B" transform="translate(77,146)"/>
<path d="M0 0 C-0.185625 0.86625 -0.37125 1.7325 -0.5625 2.625 C0.06655641 6.39933847 0.33800683 6.79412141 3.25 9 C39.18451754 30.3378608 95.36861947 28.2056131 136 31 C136.90059143 31.06272095 137.80118286 31.12544189 138.72906494 31.19006348 C198.15550471 35.26455656 259.12719959 35.04574383 318.55767822 31.15820312 C321.06849956 30.99556289 323.57977375 30.84260193 326.09130859 30.69140625 C361.47385237 28.53448255 397.25511781 25.30159353 431.86376953 17.34130859 C432.76595215 17.13973145 433.66813477 16.9381543 434.59765625 16.73046875 C435.39824463 16.54250732 436.19883301 16.3545459 437.02368164 16.16088867 C437.6758667 16.10779541 438.32805176 16.05470215 439 16 C439.66 16.66 440.32 17.32 441 18 C427.83076789 22.31314448 414.67996373 24.88813394 401 27 C399.73897461 27.20125488 398.47794922 27.40250977 397.17871094 27.60986328 C375.21598737 31.10826441 353.2872489 33.24721329 331.10107422 34.71875 C327.52754218 34.9580237 323.95967635 35.2476665 320.390625 35.546875 C312.81108129 36.13934287 305.22272416 36.31268284 297.625 36.5 C294.82541495 36.56937369 292.02598172 36.64300827 289.2265625 36.71875 C288.00533691 36.74904297 286.78411133 36.77933594 285.52587891 36.81054688 C281.69135108 36.93882938 277.87471291 37.22376747 274.04858398 37.50488281 C265.69334953 38.07410592 257.36831565 38.18073395 248.99609375 38.203125 C247.37098672 38.21006863 245.74587992 38.21706364 244.12077332 38.22410583 C238.89301305 38.24341802 233.6652917 38.24803577 228.4375 38.25 C227.5430291 38.25073643 226.6485582 38.25147285 225.72698212 38.2522316 C192.49965594 38.27448741 159.46235228 37.2955377 126.29571533 35.20568848 C123.09709737 35.00605993 119.89808539 34.8153396 116.69873047 34.62792969 C16.64096611 28.73544871 16.64096611 28.73544871 -4.375 13.25 C-6.65288647 10.09600334 -7.06917911 7.8740302 -7 4 C-3.20512821 0 -3.20512821 0 0 0 Z " fill="#FEBF7F" transform="translate(33,108)"/>
<path d="M0 0 C2.45054539 2.78855165 3.99860969 4.99629251 5.3125 8.5 C7.96595395 14.00346004 12.52709106 16.65083216 18.14453125 18.625 C19.69484274 19.10218688 21.25138328 19.55944623 22.8125 20 C23.68664551 20.24999756 24.56079102 20.49999512 25.46142578 20.75756836 C123.77018842 47.93339938 239.91012606 41.70443038 363 33 C363.83684326 32.92716797 364.67368652 32.85433594 365.53588867 32.77929688 C383.28652665 31.21939746 400.97246029 29.37687565 418.5625 26.5 C419.72620117 26.31066895 420.88990234 26.12133789 422.08886719 25.92626953 C429.23363465 24.68483237 436.08869329 22.92248419 443.01928711 20.78710938 C446 20 446 20 450 20 C449.67 20.99 449.34 21.98 449 23 C446.2731762 23.9959891 443.67728265 24.78695098 440.875 25.5 C439.65961548 25.82145996 439.65961548 25.82145996 438.41967773 26.14941406 C428.30877273 28.77438911 418.20494277 31.00254575 407.76318359 31.73754883 C405.13005889 31.98764682 402.61998374 32.41380633 400.02734375 32.9296875 C393.48825895 34.14829023 386.9259063 34.87706303 380.3125 35.5625 C379.07371094 35.69325928 377.83492188 35.82401855 376.55859375 35.95874023 C369.06166138 36.73328572 361.59140363 37.35697049 354.06396484 37.73510742 C350.54427668 37.9402965 347.05543888 38.30077497 343.55226135 38.6925354 C330.41231218 40.14069429 317.27001107 40.70048147 304.0625 41.125 C302.16639984 41.18704117 302.16639984 41.18704117 300.23199463 41.25033569 C225.91676528 43.59087865 150.90518089 44.03419991 77 35 C76.20891846 34.9041864 75.41783691 34.8083728 74.6027832 34.70965576 C12.51370551 27.15335581 12.51370551 27.15335581 1 15 C-0.09506492 11.71480525 -0.09960608 9.26336585 -0.0625 5.8125 C-0.05347656 4.72582031 -0.04445313 3.63914062 -0.03515625 2.51953125 C-0.02355469 1.68808594 -0.01195313 0.85664062 0 0 Z " fill="#EC7E38" transform="translate(25,115)"/>
<path d="M0 0 C-0.33 0.66 -0.66 1.32 -1 2 C-3.85741085 2.8013619 -6.66711443 3.49708506 -9.5625 4.125 C-10.36880859 4.30675781 -11.17511719 4.48851563 -12.00585938 4.67578125 C-14.00223825 5.12467118 -16.0009198 5.56329743 -18 6 C-18 5.34 -18 4.68 -18 4 C-16.41800369 3.35089846 -14.83434276 2.70585306 -13.25 2.0625 C-12.36828125 1.70285156 -11.4865625 1.34320313 -10.578125 0.97265625 C-6.58962451 -0.53209621 -4.12612305 -1.32625384 0 0 Z " fill="#FFC47F" transform="translate(53,102)"/>
<path d="M0 0 C-2.64 1.65 -5.28 3.3 -8 5 C-8.33 4.34 -8.66 3.68 -9 3 C-8 1 -8 1 -5.625 -0.1875 C-3 -1 -3 -1 0 0 Z " fill="#F1924B" transform="translate(484,132)"/>
</svg>
