<?xml version="1.0" encoding="UTF-8"?>
<svg version="1.1" xmlns="http://www.w3.org/2000/svg" width="512" height="512">
<path d="M0 0 C1.49330909 -0.00874829 1.49330909 -0.00874829 3.01678604 -0.01767331 C4.10315843 -0.01389399 5.18953082 -0.01011467 6.30882359 -0.00622082 C7.46859119 -0.01004636 8.62835878 -0.01387191 9.82327086 -0.01781338 C13.03848467 -0.02634657 16.25355265 -0.02590974 19.46877038 -0.02163279 C22.93782625 -0.0191669 26.4068552 -0.028178 29.87590122 -0.03567028 C36.67048984 -0.04842296 43.46503895 -0.05021028 50.25963753 -0.04787002 C55.78197366 -0.0460874 61.3042978 -0.04783529 66.8266325 -0.05209446 C67.6124253 -0.05268965 68.39821811 -0.05328484 69.20782282 -0.05389806 C70.80412876 -0.05510981 72.40043471 -0.05632394 73.99674065 -0.05754044 C88.96853059 -0.06841809 103.94029802 -0.06625237 118.91208924 -0.06015559 C132.61031592 -0.05498576 146.3084715 -0.06624321 160.00668412 -0.08525381 C174.07101246 -0.10462294 188.13530715 -0.11288987 202.19964892 -0.10913056 C210.0961202 -0.10721717 217.99253095 -0.10971952 225.88899136 -0.1238451 C232.61101503 -0.13574807 239.33294092 -0.13717599 246.05496591 -0.12505493 C249.48458383 -0.11915868 252.91402279 -0.11808723 256.34362888 -0.13005733 C260.06144233 -0.14046757 263.77877201 -0.1324696 267.49656773 -0.11974621 C268.58070939 -0.12712049 269.66485106 -0.13449478 270.78184551 -0.14209253 C277.07472368 -0.09665845 281.74744151 0.39642702 286.65026951 4.74983692 C287.08710056 5.273438 287.52393162 5.79703907 287.97399998 6.33650684 C288.47939304 6.93148975 288.98478611 7.52647266 289.50549412 8.13948536 C290.02877293 8.77555714 290.55205173 9.41162891 291.09118748 10.06697559 C291.65249363 10.73205128 292.21379978 11.39712696 292.79211521 12.08235645 C293.95569135 13.46137943 295.11542814 14.8436508 296.27136326 16.22908497 C298.8275793 19.28387729 301.42996867 22.29836147 304.02868748 25.31697559 C305.02131745 26.47545078 306.01350514 27.63430508 307.00524998 28.79353809 C307.73856541 29.65060352 307.73856541 29.65060352 308.48669529 30.52498341 C309.96618748 32.25447559 309.96618748 32.25447559 311.44567966 33.98396778 C317.09923795 40.59158732 322.76627202 47.1867764 328.46618748 53.75447559 C333.66221801 59.7415759 338.83307697 65.74953674 343.98571873 71.77400684 C346.0192233 74.15124015 348.05885103 76.52302758 350.10290623 78.89119434 C368.87455882 100.6578878 368.87455882 100.6578878 367.96618748 115.25447559 C366.09885509 126.55547417 366.09885509 126.55547417 362.96618748 131.25447559 C360.1688242 131.59505177 360.1688242 131.59505177 356.64587498 131.54744434 C355.38903904 131.53777637 354.1322031 131.52810841 352.83728123 131.51814747 C351.51857029 131.49301075 350.19985935 131.46787403 348.84118748 131.44197559 C347.50135844 131.42693042 346.16151344 131.41324172 344.82165623 131.40095997 C341.53609906 131.36550432 338.25134166 131.31608408 334.96618748 131.25447559 C334.96987465 132.34430146 334.97356182 133.43412733 334.97736073 134.55697823 C335.06606496 161.04566683 335.13184575 187.53433623 335.17343616 214.02314186 C335.19408234 226.83280998 335.22224221 239.64238012 335.26794529 252.45198536 C335.30775011 263.61373209 335.33360532 274.77540788 335.34254146 285.93722361 C335.34776697 291.85015496 335.3600915 297.76288333 335.3891077 303.67574978 C335.41617636 309.23659128 335.42464979 314.79714541 335.4186182 320.35804653 C335.41972228 322.40313749 335.42772677 324.44823767 335.44300938 326.49327183 C335.46280353 329.27766291 335.45816552 332.0609577 335.44720554 334.8453722 C335.45885691 335.66151471 335.47050828 336.47765723 335.48251271 337.31853133 C335.42438919 342.75162721 335.42438919 342.75162721 333.1431551 345.25514221 C330.02429625 346.6868492 327.3834049 346.6511952 323.96618748 346.62947559 C322.74931248 346.63720997 321.53243748 346.64494434 320.27868748 346.65291309 C316.5831928 346.20840784 315.45604564 345.97316674 312.96618748 343.25447559 C312.44006753 340.25233612 312.17894813 337.57404647 312.06652927 334.54964161 C312.01708731 333.63632257 311.96764534 332.72300354 311.91670513 331.78200817 C311.75258377 328.670605 311.61569216 325.55855466 311.47790623 322.44588184 C311.36378892 320.18964711 311.24773592 317.9335096 311.12992954 315.67746449 C310.86988868 310.64815326 310.62063615 305.61844485 310.37774754 300.58827686 C309.94861985 291.74443924 309.46842526 282.90354982 308.98425388 274.06258106 C308.80899061 270.8557509 308.63390121 267.64891128 308.45889378 264.44206715 C308.41483697 263.63505867 308.37078017 262.8280502 308.32538831 261.99658692 C307.82736517 252.85972872 307.34248623 243.72217858 306.8587656 234.58455372 C306.79254108 233.33355951 306.79254108 233.33355951 306.72497869 232.0572927 C306.33175852 224.6285137 306.33175852 224.6285137 306.18704689 221.89383376 C305.82012988 214.96417364 305.45007359 208.0346835 305.07941514 201.10522264 C304.71652671 194.31863187 304.35568331 187.53193438 303.99644011 180.74514967 C303.78418922 176.73587809 303.57116432 172.7266517 303.35605907 168.71753216 C303.15585994 164.98487924 302.95822449 161.25209908 302.76251888 157.51920795 C302.65695875 155.51764687 302.54880679 153.51622299 302.44055271 151.51480579 C302.08861132 144.74966317 301.89549659 138.02876326 301.96618748 131.25447559 C298.00618748 131.25447559 294.04618748 131.25447559 289.96618748 131.25447559 C289.97729053 132.88899174 289.98839359 134.52350788 289.99983311 136.20755482 C290.10103727 151.58494522 290.17637054 166.96223259 290.22524834 182.33987617 C290.25104624 190.24635968 290.28622661 198.15259484 290.34338474 206.05891895 C290.39317171 212.94891195 290.42546696 219.83872511 290.43662995 226.72889298 C290.44315687 230.37836156 290.45852857 234.02731563 290.49483776 237.67661953 C290.53501396 241.74748288 290.53613998 245.81744796 290.53381443 249.8885088 C290.55179081 251.10266972 290.56976719 252.31683064 290.58828831 253.56778431 C290.58141499 254.67416248 290.57454166 255.78054066 290.56746006 256.92044544 C290.57206903 257.88371911 290.57667799 258.84699278 290.58142662 259.83945656 C289.96618748 262.25447559 289.96618748 262.25447559 287.55971146 264.0651474 C283.19326137 266.06749719 279.13502967 265.97742299 274.52868748 264.44197559 C272.96618748 263.25447559 272.96618748 263.25447559 271.96618748 260.25447559 C271.80929356 258.72889194 271.69922047 257.19825386 271.61814976 255.66676807 C271.56629017 254.72510792 271.51443058 253.78344776 271.46099949 252.81325245 C271.40849033 251.78161976 271.35598118 250.74998707 271.30188084 249.68709278 C271.24321339 248.59884205 271.18454594 247.51059132 271.12410069 246.38936329 C270.93052272 242.77690303 270.74310565 239.16415306 270.55603123 235.55135059 C270.42319232 233.03565117 270.29009643 230.5199653 270.15675449 228.00429249 C269.87754166 222.71835886 269.60126647 217.43228293 269.32727146 212.14607716 C269.01233295 206.07089027 268.69163013 199.99602879 268.36779398 193.92131019 C268.0550154 188.05091761 267.74675345 182.18029548 267.440341 176.30956745 C267.31031712 173.82667272 267.17915725 171.34383718 267.04679775 168.86106586 C266.8610549 165.36576295 266.68045451 161.87022858 266.50109959 158.37459278 C266.4465662 157.36725086 266.39203281 156.35990894 266.3358469 155.32204151 C265.93096966 147.26823118 265.96618748 139.35174161 265.96618748 131.25447559 C180.82618748 131.25447559 95.68618748 131.25447559 7.96618748 131.25447559 C7.96618748 136.20447559 7.96618748 141.15447559 7.96618748 146.25447559 C7.82434689 150.29462987 7.65966714 154.32285467 7.44714451 158.35872364 C7.39183567 159.46639591 7.33652683 160.57406818 7.27954197 161.71530628 C7.09849905 165.31582662 6.91168446 168.91601451 6.72399998 172.51619434 C6.59418767 175.04107721 6.46445886 177.56596437 6.3348093 180.0908556 C6.06357756 185.35152025 5.78906644 190.61200524 5.5125742 195.87239552 C5.19344425 201.94626439 4.88399894 208.02057674 4.57884037 214.09516209 C4.2833528 219.96728404 3.97803802 225.83886855 3.669034 231.71029568 C3.53935602 234.19927866 3.41260321 236.68841583 3.28882313 239.17769909 C3.11564263 242.64349061 2.93126006 246.10851102 2.74401951 249.57356739 C2.67064869 251.11562351 2.67064869 251.11562351 2.59579563 252.68883228 C2.54256138 253.6318671 2.48932713 254.57490192 2.43447971 255.54651356 C2.39207724 256.36401931 2.34967476 257.18152506 2.30598736 258.02380371 C1.92876972 260.5001106 1.3386477 262.15916429 -0.03381252 264.25447559 C-4.79095997 265.84019141 -9.07563797 266.15002999 -13.62953377 264.06734467 C-16.03381252 262.25447559 -16.03381252 262.25447559 -16.64905167 259.83945656 C-16.6444427 258.87618289 -16.63983374 257.91290922 -16.63508511 256.92044544 C-16.64195843 255.81406727 -16.64883175 254.70768909 -16.65591335 253.56778431 C-16.63793697 252.35362339 -16.61996059 251.13946247 -16.60143948 249.8885088 C-16.60216961 248.61035297 -16.60289974 247.33219715 -16.603652 246.01530933 C-16.60508826 242.50904996 -16.57566619 239.00364356 -16.54078221 235.49758267 C-16.50955281 231.83408655 -16.50659071 228.17057147 -16.50065517 224.50696278 C-16.48510654 217.56888582 -16.44406474 210.63120218 -16.39390773 203.69329852 C-16.3380456 195.79500678 -16.31053572 187.89669639 -16.28543055 179.99825633 C-16.23314938 163.75009257 -16.14418224 147.50234975 -16.03381252 131.25447559 C-19.99381252 131.25447559 -23.95381252 131.25447559 -28.03381252 131.25447559 C-28.08243435 132.88892628 -28.13105618 134.52337696 -28.18115139 136.20735645 C-28.81693536 156.51915449 -29.83340437 176.80278077 -30.91963673 197.09473515 C-31.16784149 201.74090564 -31.41317641 206.3872279 -31.65893459 211.03352833 C-32.07063077 218.80909882 -32.48439383 226.58455707 -32.89953518 234.35994434 C-33.37753539 243.31299142 -33.85252829 252.26619415 -34.32587957 261.21948814 C-34.78517679 269.90618717 -35.2462493 278.59279102 -35.70823574 287.27934742 C-35.90329839 290.94722813 -36.09781459 294.61513719 -36.29188442 298.28307056 C-36.52026868 302.59757129 -36.75023878 306.91198479 -36.98138523 311.22633839 C-37.06535073 312.79795517 -37.14880739 314.36959925 -37.23168659 315.94127369 C-37.41631098 319.43952718 -37.60697854 322.93707924 -37.81626797 326.43394947 C-37.96104973 328.97661257 -38.0800143 331.52087991 -38.17286587 334.06596851 C-38.25636539 335.81818211 -38.25636539 335.81818211 -38.34155178 337.60579395 C-38.37962193 338.62757236 -38.41769207 339.64935078 -38.45691586 340.70209217 C-39.03381252 343.25447559 -39.03381252 343.25447559 -40.87004757 345.08261585 C-43.97057226 346.76180936 -46.5309203 346.65173974 -50.03381252 346.62947559 C-51.25068752 346.63720997 -52.46756252 346.64494434 -53.72131252 346.65291309 C-57.3988094 346.21057267 -58.56217172 345.96695032 -61.03381252 343.25447559 C-61.42537639 340.32682292 -61.55664646 337.77444607 -61.51483059 334.8453722 C-61.51824829 333.97709583 -61.52166599 333.10881945 -61.52518725 332.21423167 C-61.53179627 329.29347667 -61.50974036 326.3736328 -61.48791409 323.45296192 C-61.48678626 321.36387625 -61.4874182 319.27478898 -61.4896841 317.18570423 C-61.49083471 311.50410687 -61.46726919 305.82284531 -61.43938828 300.14132619 C-61.41443238 294.20759886 -61.41203721 288.27386437 -61.40728664 282.34009266 C-61.39483977 271.09909006 -61.36199494 259.85824254 -61.32188869 248.61730832 C-61.27722426 235.82185713 -61.25519734 223.02639866 -61.23510695 210.23088896 C-61.19326385 183.90532886 -61.12207553 157.57991744 -61.03381252 131.25447559 C-70.27381252 131.25447559 -79.51381252 131.25447559 -89.03381252 131.25447559 C-93.50967985 121.1837741 -94.97674138 113.16749051 -94.03381252 102.25447559 C-91.77132719 96.45070888 -87.66408081 92.46802235 -83.45959377 87.92635059 C-81.05005166 85.27236218 -78.78386472 82.5443827 -76.53381252 79.75447559 C-72.92232118 75.29027102 -69.14720558 71.02445446 -65.27990627 66.78181934 C-62.97193654 64.18485167 -60.7782539 61.52043547 -58.59631252 58.81697559 C-54.73672649 54.04451356 -50.66181262 49.52338451 -46.50646877 45.00838184 C-43.28671734 41.42240276 -40.27476076 37.68746067 -37.24865627 33.93806934 C-35.07748426 31.30739002 -32.83139895 28.77505135 -30.53381252 26.25447559 C-27.38110168 22.79418321 -24.36116905 19.26237532 -21.40881252 15.62947559 C-20.66889065 14.72068653 -19.92896877 13.81189747 -19.16662502 12.87556934 C-17.8053438 11.20263949 -16.44578918 9.52830219 -15.08850002 7.85213184 C-14.49295315 7.13928028 -13.89740627 6.42642872 -13.28381252 5.69197559 C-12.5181094 4.761917 -12.5181094 4.761917 -11.73693752 3.81306934 C-8.30716227 0.674353 -4.5301233 0.00457874 0 0 Z " fill="#FEBB6E" transform="translate(119.03381252288818,82.7455244064331)"/>
<path d="M0 0 C0.33 0 0.66 0 1 0 C1 1.65 1 3.3 1 5 C152.14 5 303.28 5 459 5 C459 3.35 459 1.7 459 0 C462.77390382 5.66085573 461.47459843 13.14628559 460.39453125 19.640625 C458.48973177 28.26540235 458.48973177 28.26540235 456 32 C453.20263672 32.34057617 453.20263672 32.34057617 449.6796875 32.29296875 C448.42285156 32.28330078 447.16601562 32.27363281 445.87109375 32.26367188 C444.55238281 32.23853516 443.23367188 32.21339844 441.875 32.1875 C440.53517097 32.17245483 439.19532596 32.15876613 437.85546875 32.14648438 C434.56991158 32.11102872 431.28515418 32.06160849 428 32 C428.00368717 33.08982587 428.00737434 34.17965174 428.01117325 35.30250263 C428.09987748 61.79119124 428.16565827 88.27986063 428.20724869 114.76866627 C428.22789486 127.57833438 428.25605474 140.38790453 428.30175781 153.19750977 C428.34156263 164.35925649 428.36741785 175.52093229 428.37635398 186.68274802 C428.38157949 192.59567937 428.39390402 198.50840774 428.42292023 204.42127419 C428.44998889 209.98211568 428.45846231 215.54266982 428.45243073 221.10357094 C428.4535348 223.1486619 428.46153929 225.19376208 428.4768219 227.23879623 C428.49661605 230.02318731 428.49197805 232.8064821 428.48101807 235.59089661 C428.49266943 236.40703912 428.5043208 237.22318164 428.51632524 238.06405574 C428.45820172 243.49715162 428.45820172 243.49715162 426.17696762 246.00066662 C423.05810878 247.43237361 420.41721743 247.3967196 417 247.375 C415.783125 247.38273438 414.56625 247.39046875 413.3125 247.3984375 C409.61700532 246.95393224 408.48985817 246.71869115 406 244 C405.47388005 240.99786052 405.21276065 238.31957088 405.1003418 235.29516602 C405.05089983 234.38184698 405.00145786 233.46852795 404.95051765 232.52753258 C404.78639629 229.41612941 404.64950468 226.30407907 404.51171875 223.19140625 C404.39760144 220.93517152 404.28154844 218.67903401 404.16374207 216.42298889 C403.9037012 211.39367767 403.65444867 206.36396925 403.41156006 201.33380127 C402.98243237 192.48996364 402.50223779 183.64907423 402.01806641 174.80810547 C401.84280313 171.60127531 401.66771373 168.39443568 401.4927063 165.18759155 C401.4486495 164.38058308 401.40459269 163.5735746 401.35920084 162.74211133 C400.86117769 153.60525313 400.37629876 144.46770298 399.89257812 135.33007812 C399.8263536 134.07908392 399.8263536 134.07908392 399.75879121 132.80281711 C399.36557105 125.3740381 399.36557105 125.3740381 399.22085941 122.63935816 C398.8539424 115.70969805 398.48388611 108.7802079 398.11322767 101.85074705 C397.75033923 95.06415627 397.38949584 88.27745878 397.03025264 81.49067408 C396.81800174 77.48140249 396.60497684 73.47217611 396.3898716 69.46305656 C396.18967246 65.73040365 395.99203702 61.99762349 395.79633141 58.26473236 C395.69077127 56.26317127 395.58261931 54.26174739 395.47436523 52.2603302 C395.12242384 45.49518758 394.92930911 38.77428766 395 32 C391.04 32 387.08 32 383 32 C383.01110306 33.63451614 383.02220612 35.26903229 383.03364563 36.95307922 C383.13484979 52.33046963 383.21018306 67.70775699 383.25906086 83.08540058 C383.28485876 90.99188409 383.32003913 98.89811925 383.37719727 106.80444336 C383.42698423 113.69443635 383.45927949 120.58424952 383.47044247 127.47441739 C383.47696939 131.12388597 383.49234109 134.77284004 383.52865028 138.42214394 C383.56882648 142.49300729 383.5699525 146.56297237 383.56762695 150.6340332 C383.58560333 151.84819412 383.60357971 153.06235504 383.62210083 154.31330872 C383.61522751 155.41968689 383.60835419 156.52606506 383.60127258 157.66596985 C383.60588155 158.62924352 383.61049051 159.59251719 383.61523914 160.58498096 C383 163 383 163 380.59352398 164.81067181 C376.2270739 166.81302159 372.16884219 166.7229474 367.5625 165.1875 C366 164 366 164 365 161 C364.84310609 159.47441635 364.73303299 157.94377827 364.65196228 156.41229248 C364.60010269 155.47063232 364.5482431 154.52897217 364.49481201 153.55877686 C364.44230286 152.52714417 364.3897937 151.49551147 364.33569336 150.43261719 C364.27702591 149.34436646 364.21835846 148.25611572 364.15791321 147.1348877 C363.96433524 143.52242744 363.77691817 139.90967747 363.58984375 136.296875 C363.45700485 133.78117557 363.32390895 131.26548971 363.19056702 128.74981689 C362.91135419 123.46388326 362.63507899 118.17780734 362.36108398 112.89160156 C362.04614548 106.81641468 361.72544265 100.7415532 361.4016065 94.66683459 C361.08882792 88.79644202 360.78056597 82.92581988 360.47415352 77.05509186 C360.34412964 74.57219713 360.21296977 72.08936159 360.08061028 69.60659027 C359.89486742 66.11128736 359.71426703 62.61575299 359.53491211 59.12011719 C359.48037872 58.11277527 359.42584534 57.10543335 359.36965942 56.06756592 C358.96478218 48.01375559 359 40.09726602 359 32 C273.86 32 188.72 32 101 32 C101 36.95 101 41.9 101 47 C100.85815941 51.04015428 100.69347966 55.06837908 100.48095703 59.10424805 C100.42564819 60.21192032 100.37033936 61.31959259 100.31335449 62.46083069 C100.13231157 66.06135103 99.94549698 69.66153892 99.7578125 73.26171875 C99.62800019 75.78660162 99.49827138 78.31148878 99.36862183 80.83638 C99.09739008 86.09704466 98.82287896 91.35752965 98.54638672 96.61791992 C98.22725677 102.6917888 97.91781146 108.76610114 97.6126529 114.8406865 C97.31716532 120.71280845 97.01185055 126.58439296 96.70284653 132.45582008 C96.57316855 134.94480307 96.44641574 137.43394023 96.32263565 139.9232235 C96.14945515 143.38901501 95.96507258 146.85403543 95.77783203 150.3190918 C95.70446121 151.86114792 95.70446121 151.86114792 95.62960815 153.43435669 C95.5763739 154.37739151 95.52313965 155.32042633 95.46829224 156.29203796 C95.42588976 157.10954371 95.38348728 157.92704947 95.33979988 158.76932812 C94.96258224 161.24563501 94.37246023 162.90468869 93 165 C88.24285255 166.58571582 83.95817455 166.8955544 79.40427876 164.81286907 C77 163 77 163 76.38476086 160.58498096 C76.38936982 159.6217073 76.39397879 158.65843363 76.39872742 157.66596985 C76.3918541 156.55959167 76.38498077 155.4532135 76.37789917 154.31330872 C76.39587555 153.0991478 76.41385193 151.88498688 76.43237305 150.6340332 C76.43164291 149.35587738 76.43091278 148.07772156 76.43016052 146.76083374 C76.42872426 143.25457436 76.45814633 139.74916797 76.49303031 136.24310708 C76.52425971 132.57961096 76.52722182 128.91609587 76.53315735 125.25248718 C76.54870598 118.31441022 76.58974778 111.37672658 76.6399048 104.43882293 C76.69576693 96.54053119 76.7232768 88.6422208 76.74838197 80.74378073 C76.80066314 64.49561697 76.88963028 48.24787416 77 32 C73.04 32 69.08 32 65 32 C64.95137817 33.63445068 64.90275635 35.26890137 64.85266113 36.95288086 C64.21687716 57.2646789 63.20040815 77.54830517 62.1141758 97.84025955 C61.86597103 102.48643005 61.62063611 107.1327523 61.37487793 111.77905273 C60.96318175 119.55462323 60.54941869 127.33008147 60.13427734 135.10546875 C59.65627713 144.05851583 59.18128423 153.01171856 58.70793295 161.96501255 C58.24863574 170.65171158 57.78756323 179.33831543 57.32557678 188.02487183 C57.13051413 191.69275254 56.93599793 195.3606616 56.7419281 199.02859497 C56.51354384 203.34309569 56.28357374 207.6575092 56.05242729 211.97186279 C55.96846179 213.54347958 55.88500513 215.11512365 55.80212593 216.6867981 C55.61750154 220.18505158 55.42683399 223.68260365 55.21754456 227.17947388 C55.07276279 229.72213698 54.95379822 232.26640432 54.86094666 234.81149292 C54.8052803 235.97963531 54.74961395 237.14777771 54.69226074 238.35131836 C54.6541906 239.37309677 54.61612045 240.39487518 54.57689667 241.44761658 C54 244 54 244 52.16376495 245.82814026 C49.06324026 247.50733377 46.50289223 247.39726415 43 247.375 C41.783125 247.38273438 40.56625 247.39046875 39.3125 247.3984375 C35.63500312 246.95609707 34.4716408 246.71247472 32 244 C31.60843614 241.07234732 31.47716606 238.51997047 31.51898193 235.59089661 C31.51556423 234.72262023 31.51214653 233.85434386 31.50862527 232.95975608 C31.50201626 230.03900107 31.52407217 227.1191572 31.54589844 224.19848633 C31.54702626 222.10940065 31.54639433 220.02031339 31.54412842 217.93122864 C31.54297781 212.24963128 31.56654333 206.56836971 31.59442425 200.8868506 C31.61938014 194.95312327 31.62177531 189.01938878 31.62652588 183.08561707 C31.63897276 171.84461447 31.67181758 160.60376695 31.71192384 149.36283273 C31.75658826 136.56738154 31.77861518 123.77192306 31.79870558 110.97641337 C31.84054868 84.65085327 31.911737 58.32544184 32 32 C22.76 32 13.52 32 4 32 C-0.35135206 22.20945787 -3.56231804 10.68695413 0 0 Z " fill="#F59C45" transform="translate(26,182)"/>
<path d="M0 0 C1.28856651 -0.00043808 1.28856651 -0.00043808 2.60316467 -0.00088501 C5.43305683 0.00050458 8.26268332 0.01604833 11.0925293 0.03173828 C13.0583634 0.03546973 15.02419938 0.03831608 16.99003601 0.04031372 C22.15708577 0.04793978 27.3240226 0.06757951 32.49102783 0.08972168 C37.76638257 0.11020219 43.04175561 0.11932016 48.31713867 0.12939453 C58.66289134 0.15082633 69.00856029 0.18494993 79.35424805 0.22705078 C79.35424805 0.55705078 79.35424805 0.88705078 79.35424805 1.22705078 C78.29015717 1.23291702 77.22606628 1.23878326 76.12973022 1.24482727 C66.09504063 1.30207385 56.06056734 1.37484573 46.02609825 1.46276569 C40.86743104 1.50746731 35.70884277 1.54672401 30.55004883 1.57348633 C25.57025659 1.59952122 20.59076816 1.63992521 15.61116409 1.69023705 C13.71264046 1.70690445 11.81406428 1.71841951 9.91547775 1.72466469 C7.25330611 1.73430709 4.59191148 1.76236797 1.92993164 1.79467773 C1.14733978 1.79324265 0.36474792 1.79180756 -0.44155884 1.79032898 C-5.94900988 1.88468136 -10.13525371 2.99014835 -14.37744141 6.77001953 C-14.8333667 7.31271484 -15.28929199 7.85541016 -15.7590332 8.41455078 C-16.54032593 9.33022827 -16.54032593 9.33022827 -17.33740234 10.2644043 C-17.87228271 10.91207764 -18.40716309 11.55975098 -18.95825195 12.22705078 C-19.52729248 12.89986084 -20.09633301 13.5726709 -20.68261719 14.26586914 C-24.62365322 18.94157083 -28.49501897 23.67541502 -32.3449707 28.42626953 C-35.02634383 31.69035192 -37.76648452 34.89946513 -40.52075195 38.10205078 C-41.02566162 38.68946045 -41.53057129 39.27687012 -42.05078125 39.88208008 C-43.07325138 41.07135113 -44.09579382 42.26056002 -45.1184082 43.44970703 C-47.5922193 46.32843861 -50.06021571 49.21196474 -52.52075195 52.10205078 C-53.36379883 53.08947266 -54.2068457 54.07689453 -55.07543945 55.09423828 C-58.08292248 58.69039991 -60.86322039 62.45581461 -63.64575195 66.22705078 C-62.76004517 66.29267212 -62.76004517 66.29267212 -61.85644531 66.35961914 C-42.51505429 67.88927363 -23.49747557 70.9396497 -4.37301636 74.1394043 C11.68030894 76.82479386 27.73631997 79.39621942 43.85424805 81.66455078 C44.69990326 81.78383942 45.54555847 81.90312805 46.4168396 82.02603149 C53.11361732 82.96839944 53.11361732 82.96839944 59.81492615 83.87779236 C61.79451713 84.15006537 63.77147383 84.44151389 65.74720764 84.74049377 C74.30913728 85.98691026 82.58094792 86.4841579 91.2253418 86.38720703 C92.57623307 86.38050646 93.92713028 86.37492974 95.2780304 86.37034607 C98.21873258 86.358955 101.15932809 86.34202775 104.09997559 86.32080078 C112.50102336 86.26181666 120.90224698 86.24721362 129.3034668 86.23095703 C130.22389393 86.22891392 131.14432106 86.2268708 132.09263992 86.22476578 C148.81238221 86.19100864 165.52973267 86.29452509 182.2487793 86.44189453 C183.50041241 86.45281128 184.75204552 86.46372803 186.0416069 86.47497559 C198.95575301 86.58861314 211.86975919 86.71286901 224.78367043 86.85062027 C231.19909047 86.91839562 237.61454334 86.9822534 244.0300293 87.04345703 C245.28456532 87.05545135 246.53910133 87.06744568 247.83165359 87.07980347 C263.75083419 87.22506206 279.65848642 87.22033185 295.57661819 86.98431015 C298.47156312 86.94262393 301.36651291 86.90705139 304.26156616 86.87380981 C306.10723909 86.85226091 307.9529117 86.83068548 309.79858398 86.80908203 C311.12958476 86.79374074 311.12958476 86.79374074 312.48747444 86.77808952 C317.59714201 86.71432155 322.70322304 86.60502995 327.81119061 86.45981503 C330.89353595 86.38185196 333.97541313 86.34431176 337.05858803 86.31772041 C338.45226038 86.29678705 339.84581121 86.25839842 341.2384243 86.20017815 C346.99038759 85.96402524 351.48624598 85.8210847 356.2048645 89.37258911 C362.87087893 96.45535662 362.87087893 96.45535662 362.91674805 101.35205078 C362.73112305 102.30080078 362.54549805 103.24955078 362.35424805 104.22705078 C359.36355095 105.72239933 356.30281769 105.36351758 353.02345276 105.35289192 C352.25522261 105.35434536 351.48699246 105.3557988 350.69548261 105.35729629 C348.09416953 105.36097617 345.49291432 105.3574607 342.89160156 105.35403442 C341.01864116 105.35518546 339.14568099 105.35677286 337.27272129 105.35876167 C332.10478063 105.36295743 326.93685831 105.36086319 321.76891756 105.35777545 C316.20376234 105.35552257 310.63861039 105.3590004 305.07345581 105.36175537 C294.16294761 105.36621327 283.25244626 105.36523651 272.34193778 105.36234273 C263.47853778 105.36008877 254.61513971 105.35977614 245.7517395 105.36086655 C243.86299114 105.3610964 243.86299114 105.3610964 241.93608624 105.36133089 C239.37850277 105.3616506 236.82091929 105.36197481 234.26333582 105.36230348 C210.9387128 105.36507687 187.61409381 105.36219568 164.28947164 105.35696088 C142.98130916 105.35221502 121.67315266 105.35263963 100.36499023 105.35742188 C76.444008 105.36277253 52.52302905 105.36488364 28.60204601 105.36180961 C26.05361621 105.36149105 23.5051864 105.36117668 20.95675659 105.36086655 C19.70272193 105.36071227 18.44868727 105.360558 17.15665156 105.36039905 C8.29894243 105.35953387 -0.55876459 105.36099678 -9.41647339 105.3633461 C-20.20393857 105.36614422 -30.99139647 105.36540557 -41.77886081 105.36006536 C-47.28785144 105.35742851 -52.79682991 105.356423 -58.30582047 105.35971451 C-63.34147137 105.36267781 -68.37709875 105.36108408 -73.4127475 105.35573696 C-75.24178231 105.35461292 -77.07081907 105.35520366 -78.89985263 105.35761274 C-81.37158288 105.3606205 -83.84323084 105.35756826 -86.31495667 105.35289192 C-87.39877733 105.35640367 -87.39877733 105.35640367 -88.50449336 105.35998636 C-93.4174512 105.34120116 -93.4174512 105.34120116 -95.64575195 104.22705078 C-95.94372356 100.74734843 -95.98551684 98.78103436 -94.1340332 95.76220703 C-93.05702148 94.53824219 -93.05702148 94.53824219 -91.95825195 93.28955078 C-91.13583008 92.33822266 -90.3134082 91.38689453 -89.46606445 90.40673828 C-88.78592285 89.64055176 -88.78592285 89.64055176 -88.09204102 88.85888672 C-86.5711499 87.14287791 -85.07161711 85.40995047 -83.57543945 83.67236328 C-81.3817883 81.12724685 -79.18107116 78.58855632 -76.97387695 76.05517578 C-73.8263358 72.43970749 -70.70042944 68.806209 -67.58325195 65.16455078 C-67.09163574 64.59043457 -66.60001953 64.01631836 -66.09350586 63.42480469 C-64.61056947 61.6925207 -63.12807868 59.95985648 -61.64575195 58.22705078 C-55.49964848 51.04239781 -49.34286874 43.86778803 -43.14575195 36.72705078 C-38.92489448 31.86272777 -34.71422517 26.99000623 -30.52075195 22.10205078 C-29.78779907 21.25078613 -29.78779907 21.25078613 -29.04003906 20.38232422 C-26.5313707 17.46117489 -24.05681118 14.51827424 -21.6262207 11.53173828 C-20.89072998 10.63672607 -20.89072998 10.63672607 -20.14038086 9.72363281 C-19.21366706 8.59344009 -18.29479246 7.45675421 -17.38549805 6.3125 C-12.37510269 0.22858641 -7.54990089 -0.06744778 0 0 Z " fill="#FEB768" transform="translate(122.645751953125,82.77294921875)"/>
<path d="M0 0 C0.99914079 -0.00706559 1.99828157 -0.01413118 3.02769935 -0.02141088 C4.12836144 -0.0189958 5.22902353 -0.01658071 6.36303902 -0.01409245 C7.52997044 -0.01932912 8.69690186 -0.0245658 9.89919484 -0.02996117 C13.143652 -0.04239526 16.38797528 -0.04580398 19.63245177 -0.04536426 C23.1294801 -0.04701018 26.62646874 -0.0600724 30.12347603 -0.07155704 C37.77214991 -0.09442299 45.42079607 -0.10232924 53.06949949 -0.10738349 C57.84375326 -0.1106384 62.61799895 -0.1171596 67.39224815 -0.12438488 C80.60646175 -0.14395223 93.82066783 -0.16035587 107.03489685 -0.16326141 C107.8807705 -0.16344898 108.72664414 -0.16363655 109.59815032 -0.16382981 C111.31299663 -0.16419606 113.02784293 -0.16455976 114.74268924 -0.16492092 C115.59396015 -0.16510373 116.44523105 -0.16528654 117.32229805 -0.16547489 C118.17460582 -0.16565544 119.02691359 -0.16583599 119.90504886 -0.16602201 C133.72051728 -0.16956488 147.53582994 -0.19659366 161.35124432 -0.23397278 C175.5296374 -0.27202757 189.70795313 -0.29141868 203.88639843 -0.29172093 C211.84943236 -0.29230611 219.81228046 -0.30083706 227.77526665 -0.32971859 C234.55486759 -0.35419467 241.33421493 -0.36154105 248.11384808 -0.34647106 C251.57382922 -0.33928668 255.03330923 -0.34022413 258.49323463 -0.36288166 C262.24243371 -0.38318782 265.99032327 -0.3728794 269.73950386 -0.35466862 C270.83570451 -0.36786858 271.93190515 -0.38106855 273.061324 -0.39466852 C281.25164466 -0.30342744 281.25164466 -0.30342744 284.39317703 2.79848289 C285.27679067 4.01696466 285.27679067 4.01696466 286.17825508 5.26006222 C285.51825508 5.59006222 284.85825508 5.92006222 284.17825508 6.26006222 C284.66584297 6.67183712 285.15343086 7.08361202 285.65579414 7.50786495 C290.72177611 11.85351623 295.38338821 16.43846721 299.92825508 21.32256222 C300.61564766 22.05773067 301.30304024 22.79289913 302.01126289 23.55034542 C306.40275967 28.27553481 310.7162207 33.06168216 314.92825508 37.94756222 C315.40488594 38.498717 315.8815168 39.04987179 316.37259102 39.61772823 C319.26337462 43.01935609 321.77282967 46.51142028 324.17825508 50.26006222 C321.06741669 51.29700835 318.90845323 51.39081719 315.64576912 51.40050411 C314.49494347 51.40621426 313.34411781 51.4119244 312.15841866 51.41780758 C310.89451302 51.41892544 309.63060738 51.4200433 308.32840157 51.42119503 C306.98459423 51.42582423 305.64078821 51.43084903 304.29698372 51.4362402 C300.64371437 51.44936169 296.99046341 51.45580938 293.33717418 51.46025085 C291.05207749 51.46318372 288.7669858 51.46728906 286.48189163 51.47175503 C279.32500368 51.48543311 272.16812718 51.49509663 265.01122707 51.49895692 C256.76430093 51.50342999 248.51754116 51.52094151 240.27066559 51.54995751 C233.88833259 51.57162895 227.5060462 51.58166421 221.12367684 51.58299804 C217.31601855 51.58404273 213.50851659 51.58987787 209.70089722 51.60781765 C206.11313267 51.6243917 202.52564033 51.62640906 198.93785095 51.61767864 C197.00747752 51.61655055 195.07711275 51.63019812 193.14679146 51.64443111 C185.98575136 51.61036129 179.89417538 50.79727278 173.17825508 48.26006222 C173.17825508 47.93006222 173.17825508 47.60006222 173.17825508 47.26006222 C174.13449776 47.17554806 175.09074043 47.0910339 176.07596016 47.0039587 C209.79240017 43.97745483 243.13664898 39.04877045 276.26053047 32.03789425 C277.37548897 31.80312374 278.49044746 31.56835323 279.63919258 31.32646847 C280.59616035 31.1196545 281.55312813 30.91284054 282.53909492 30.69975948 C285.13935403 30.26654333 287.54777851 30.17866116 290.17825508 30.26006222 C289.29264767 28.11090191 289.29264767 28.11090191 287.17825508 26.26006222 C284.06009305 25.86111279 281.29249053 25.72208705 278.17137337 25.75453854 C277.23835952 25.74844842 276.30534568 25.7423583 275.34405869 25.73608363 C272.2030102 25.72041073 269.06271638 25.73330218 265.92166328 25.74590206 C263.67447109 25.74044395 261.42728262 25.73320411 259.18010139 25.72431087 C254.32972909 25.70893477 249.47956845 25.70618852 244.62917709 25.71307659 C236.93933158 25.72385589 229.24970693 25.70648332 221.55989265 25.68526363 C210.75631634 25.65839418 199.95280947 25.644075 189.14920235 25.64092159 C188.46337167 25.6407176 187.777541 25.64051362 187.07092758 25.64030345 C186.38436686 25.64010008 185.69780614 25.63989671 184.99044055 25.63968718 C175.30865411 25.6367817 165.62688096 25.63000774 155.94510078 25.61846066 C155.26647566 25.61765536 154.58785053 25.61685006 153.888661 25.61602037 C142.5024298 25.60218056 131.1162243 25.58030982 119.73001355 25.55459082 C112.10886806 25.53821945 104.48781728 25.53265198 96.86665595 25.53618121 C92.08545369 25.53662332 87.30428604 25.52897817 82.52309418 25.5195055 C80.33203332 25.51685866 78.14096513 25.51751179 75.9499073 25.52201557 C61.7920421 25.54906429 47.85431068 24.82288042 33.75966012 23.48935342 C14.97505034 21.82082575 -3.97811762 21.7514977 -22.82174492 21.26006222 C-21.48597311 18.35690496 -19.97782676 16.07144907 -17.88815117 13.65849972 C-17.3216082 13.00365597 -16.75506523 12.34881222 -16.17135429 11.67412472 C-15.5816082 11.00123409 -14.99186211 10.32834347 -14.38424492 9.63506222 C-13.79836601 8.95443722 -13.21248711 8.27381222 -12.60885429 7.57256222 C-6.02837188 0.01359718 -6.02837188 0.01359718 0 0 Z " fill="#FEC67D" transform="translate(117.82174491882324,84.7399377822876)"/>
<path d="M0 0 C10.89 0 21.78 0 33 0 C33.09250348 26.54645498 33.163931 53.09287128 33.20724869 79.63945484 C33.22789435 91.96485179 33.25605325 104.29014691 33.30175781 116.61547852 C33.3415642 127.35532357 33.36741822 138.09509489 33.37635398 148.83501166 C33.38157923 154.52438111 33.39390206 160.21353959 33.42292023 165.90284157 C33.44999138 171.25356743 33.45846182 176.60399465 33.45243073 181.95478249 C33.45353469 183.92247132 33.46153774 185.89016975 33.4768219 187.85779953 C33.4966201 190.53710704 33.49197674 193.21527563 33.48101807 195.89460754 C33.49266943 196.67962247 33.5043208 197.4646374 33.51632524 198.27344066 C33.45821563 203.50190743 33.45821563 203.50190743 31.17696762 205.98168468 C28.05904412 207.44014885 25.42679052 207.39678045 22 207.375 C20.783125 207.38273438 19.56625 207.39046875 18.3125 207.3984375 C14.618797 206.95414775 13.49075131 206.71485706 11 204 C10.47351887 201.01627576 10.21276543 198.35849137 10.1003418 195.35229492 C10.05089983 194.44343599 10.00145786 193.53457706 9.95051765 192.59817696 C9.78627409 189.49708505 9.64941338 186.39534506 9.51171875 183.29296875 C9.39754252 181.04069395 9.28148965 178.78851365 9.16374207 176.53642273 C8.90310437 171.4944298 8.65385442 166.45202567 8.41156006 161.40911865 C7.97844471 152.42421813 7.4994645 143.44189498 7.01806641 134.45947266 C6.84274259 131.18052234 6.66766215 127.90155908 6.4927063 124.62258911 C6.4486495 123.7970174 6.40459269 122.97144568 6.35920084 122.12085664 C5.8620855 112.79128666 5.37672609 103.46110992 4.89257812 94.13085938 C4.84842844 93.28018835 4.80427876 92.42951733 4.75879121 91.5530684 C4.57941652 88.0964409 4.40009137 84.63981083 4.22085941 81.18317592 C3.76030502 72.30190384 3.29768849 63.42073945 2.83496821 54.53957999 C1.88782187 36.35983165 0.94331972 18.17994733 0 0 Z " fill="#FFAB55" transform="translate(421,222)"/>
<path d="M0 0 C10.89 0 21.78 0 33 0 C31.71531539 24.67888655 30.42892602 49.35768358 29.14029789 74.03636456 C28.54196355 85.49595902 27.94422388 96.95558391 27.34790039 108.4152832 C26.82794142 118.40743677 26.30685013 128.39953055 25.78441805 138.39155513 C25.50801981 143.67869036 25.23217579 148.96585315 24.95768929 154.253088 C24.69889163 159.23777353 24.43857082 164.22237727 24.17712212 169.20692444 C24.08184094 171.02846211 23.98709846 172.85002807 23.89295959 174.67162514 C23.64731365 179.4218074 23.38708909 184.17072458 23.11082006 188.91921973 C23.00367846 190.93093255 22.92845247 192.94426677 22.85436821 194.95746803 C22.7707941 196.71130082 22.7707941 196.71130082 22.68553162 198.50056458 C22.64843299 199.50079556 22.61133436 200.50102655 22.57311153 201.53156757 C22 204 22 204 20.16418552 205.81881237 C17.06408061 207.51081406 14.50822686 207.39729805 11 207.375 C9.783125 207.38273438 8.56625 207.39046875 7.3125 207.3984375 C3.64414243 206.95719638 2.4767843 206.69233041 0 204 C-0.39189258 201.16936846 -0.52304896 198.72645418 -0.48101807 195.89460754 C-0.48443577 195.05899959 -0.48785347 194.22339163 -0.49137473 193.36246222 C-0.49798254 190.55225028 -0.47593005 187.7429858 -0.45410156 184.93286133 C-0.45297371 182.92259239 -0.45360573 180.91232181 -0.45587158 178.90205383 C-0.45702208 173.4353202 -0.4334583 167.96893564 -0.40557575 162.50228333 C-0.3806181 156.79277442 -0.37822455 151.08325805 -0.37347412 145.373703 C-0.36102776 134.55768908 -0.32818364 123.74183634 -0.28807616 112.92589349 C-0.24341013 100.6141099 -0.22138441 88.30231874 -0.20129442 75.99047434 C-0.15945249 50.66022374 -0.08826508 25.33012768 0 0 Z " fill="#FFAB55" transform="translate(58,222)"/>
<path d="M0 0 C0.99914079 -0.00706559 1.99828157 -0.01413118 3.02769935 -0.02141088 C4.12836144 -0.0189958 5.22902353 -0.01658071 6.36303902 -0.01409245 C7.52997044 -0.01932912 8.69690186 -0.0245658 9.89919484 -0.02996117 C13.143652 -0.04239526 16.38797528 -0.04580398 19.63245177 -0.04536426 C23.1294801 -0.04701018 26.62646874 -0.0600724 30.12347603 -0.07155704 C37.77214991 -0.09442299 45.42079607 -0.10232924 53.06949949 -0.10738349 C57.84375326 -0.1106384 62.61799895 -0.1171596 67.39224815 -0.12438488 C80.60646175 -0.14395223 93.82066783 -0.16035587 107.03489685 -0.16326141 C108.30370732 -0.16354277 108.30370732 -0.16354277 109.59815032 -0.16382981 C111.31299663 -0.16419606 113.02784293 -0.16455976 114.74268924 -0.16492092 C116.0195956 -0.16519514 116.0195956 -0.16519514 117.32229805 -0.16547489 C118.17460582 -0.16565544 119.02691359 -0.16583599 119.90504886 -0.16602201 C133.72051728 -0.16956488 147.53582994 -0.19659366 161.35124432 -0.23397278 C175.5296374 -0.27202757 189.70795313 -0.29141868 203.88639843 -0.29172093 C211.84943236 -0.29230611 219.81228046 -0.30083706 227.77526665 -0.32971859 C234.55486759 -0.35419467 241.33421493 -0.36154105 248.11384808 -0.34647106 C251.57382922 -0.33928668 255.03330923 -0.34022413 258.49323463 -0.36288166 C262.24243371 -0.38318782 265.99032327 -0.3728794 269.73950386 -0.35466862 C270.83570451 -0.36786858 271.93190515 -0.38106855 273.061324 -0.39466852 C281.25164466 -0.30342744 281.25164466 -0.30342744 284.39317703 2.79848289 C285.27679067 4.01696466 285.27679067 4.01696466 286.17825508 5.26006222 C285.51825508 5.59006222 284.85825508 5.92006222 284.17825508 6.26006222 C284.66584297 6.67183712 285.15343086 7.08361202 285.65579414 7.50786495 C290.72177611 11.85351623 295.38338821 16.43846721 299.92825508 21.32256222 C300.61564766 22.05773067 301.30304024 22.79289913 302.01126289 23.55034542 C306.40275967 28.27553481 310.7162207 33.06168216 314.92825508 37.94756222 C315.40488594 38.498717 315.8815168 39.04987179 316.37259102 39.61772823 C319.26337462 43.01935609 321.77282967 46.51142028 324.17825508 50.26006222 C321.06741669 51.29700835 318.90845323 51.39081719 315.64576912 51.40050411 C314.49494347 51.40621426 313.34411781 51.4119244 312.15841866 51.41780758 C310.89451302 51.41892544 309.63060738 51.4200433 308.32840157 51.42119503 C306.98459423 51.42582423 305.64078821 51.43084903 304.29698372 51.4362402 C300.64371437 51.44936169 296.99046341 51.45580938 293.33717418 51.46025085 C291.05207749 51.46318372 288.7669858 51.46728906 286.48189163 51.47175503 C279.32500368 51.48543311 272.16812718 51.49509663 265.01122707 51.49895692 C256.76430093 51.50342999 248.51754116 51.52094151 240.27066559 51.54995751 C233.88833259 51.57162895 227.5060462 51.58166421 221.12367684 51.58299804 C217.31601855 51.58404273 213.50851659 51.58987787 209.70089722 51.60781765 C206.11313267 51.6243917 202.52564033 51.62640906 198.93785095 51.61767864 C197.00747752 51.61655055 195.07711275 51.63019812 193.14679146 51.64443111 C185.98575136 51.61036129 179.89417538 50.79727278 173.17825508 48.26006222 C173.17825508 47.93006222 173.17825508 47.60006222 173.17825508 47.26006222 C174.13449776 47.17554806 175.09074043 47.0910339 176.07596016 47.0039587 C209.79240017 43.97745483 243.13664898 39.04877045 276.26053047 32.03789425 C277.37548897 31.80312374 278.49044746 31.56835323 279.63919258 31.32646847 C280.59616035 31.1196545 281.55312813 30.91284054 282.53909492 30.69975948 C285.13935403 30.26654333 287.54777851 30.17866116 290.17825508 30.26006222 C284.08914701 21.90928543 275.67679009 15.75955552 265.38386726 13.93987179 C264.69984337 13.83412838 264.01581947 13.72838497 263.31106758 13.61943722 C262.57391014 13.49822506 261.8367527 13.3770129 261.07725716 13.25212765 C248.79107295 11.31875011 236.35675196 10.71873252 223.96070957 9.8726387 C219.30390166 9.55270312 214.64839614 9.22369625 209.99473763 8.86061764 C167.48764752 5.55834264 124.98473905 5.89664363 82.38174421 6.04398096 C72.2986332 6.0782251 62.2155142 6.0941856 52.13235903 6.1090914 C31.48092612 6.14000538 10.82959822 6.1923707 -9.82174492 6.26006222 C-7.69010229 1.34088691 -5.27276178 0.01189288 0 0 Z " fill="#FECB84" transform="translate(117.82174491882324,84.7399377822876)"/>
<path d="M0 0 C17.83720482 -0.25730466 35.67392616 -0.45110224 53.51258755 -0.56993389 C61.79605187 -0.62658414 70.07836121 -0.70377133 78.36108398 -0.82983398 C85.58294926 -0.93969776 92.80397799 -1.01049157 100.02665573 -1.03497344 C103.84928848 -1.04927944 107.66952881 -1.08273091 111.49139214 -1.16303062 C115.09468891 -1.23811947 118.69462679 -1.2606505 122.29863167 -1.24418449 C124.24037866 -1.24861959 126.18176527 -1.30761082 128.12255859 -1.36862183 C133.35163254 -1.30124327 136.65980918 -1.17552635 140.68470955 2.35484886 C142.97408209 5.1442277 144.97898267 8.01323263 147 11 C148.49345 12.71178193 150.0109013 14.40324361 151.5625 16.0625 C164 29.7481294 164 29.7481294 164 33 C153.92432366 33.11642901 143.84881031 33.20498461 133.77259541 33.25906086 C129.09253803 33.2850297 124.4129447 33.32019179 119.7331543 33.37719727 C115.20731812 33.43197529 110.68192509 33.46151585 106.1557827 33.47438622 C104.43877383 33.48354471 102.72178611 33.50142665 101.00496864 33.52865028 C90.2335897 33.69248387 81.90716874 32.73871283 72 28 C70.79867432 27.50564453 69.59734863 27.01128906 68.35961914 26.50195312 C67.42754639 26.09912109 66.49547363 25.69628906 65.53515625 25.28125 C63.93317383 24.59482422 63.93317383 24.59482422 62.29882812 23.89453125 C60.14457011 22.96626316 57.99092147 22.0365796 55.83789062 21.10546875 C47.99302731 17.74811314 40.06383902 14.78727773 32 12 C31.00101181 11.65373566 31.00101181 11.65373566 29.98184204 11.30047607 C25.03312364 9.58572347 20.07963785 7.88505786 15.125 6.1875 C13.64710801 5.6804184 12.16924329 5.17325733 10.69140625 4.66601562 C7.12791631 3.44309843 3.56406449 2.22124166 0 1 C0 0.67 0 0.34 0 0 Z " fill="#FEC579" transform="translate(311,138)"/>
<path d="M0 0 C1.28856651 -0.00043808 1.28856651 -0.00043808 2.60316467 -0.00088501 C5.43305683 0.00050458 8.26268332 0.01604833 11.0925293 0.03173828 C13.0583634 0.03546973 15.02419938 0.03831608 16.99003601 0.04031372 C22.15708577 0.04793978 27.3240226 0.06757951 32.49102783 0.08972168 C37.76638257 0.11020219 43.04175561 0.11932016 48.31713867 0.12939453 C58.66289134 0.15082633 69.00856029 0.18494993 79.35424805 0.22705078 C79.35424805 0.55705078 79.35424805 0.88705078 79.35424805 1.22705078 C78.29015717 1.23291702 77.22606628 1.23878326 76.12973022 1.24482727 C66.09504063 1.30207385 56.06056734 1.37484573 46.02609825 1.46276569 C40.86743104 1.50746731 35.70884277 1.54672401 30.55004883 1.57348633 C25.57025659 1.59952122 20.59076816 1.63992521 15.61116409 1.69023705 C13.71264046 1.70690445 11.81406428 1.71841951 9.91547775 1.72466469 C7.25330611 1.73430709 4.59191148 1.76236797 1.92993164 1.79467773 C1.14733978 1.79324265 0.36474792 1.79180756 -0.44155884 1.79032898 C-5.94900988 1.88468136 -10.13525371 2.99014835 -14.37744141 6.77001953 C-14.8333667 7.31271484 -15.28929199 7.85541016 -15.7590332 8.41455078 C-16.54032593 9.33022827 -16.54032593 9.33022827 -17.33740234 10.2644043 C-17.87228271 10.91207764 -18.40716309 11.55975098 -18.95825195 12.22705078 C-19.52729248 12.89986084 -20.09633301 13.5726709 -20.68261719 14.26586914 C-24.62365322 18.94157083 -28.49501897 23.67541502 -32.3449707 28.42626953 C-35.02634383 31.69035192 -37.76648452 34.89946513 -40.52075195 38.10205078 C-41.02566162 38.68946045 -41.53057129 39.27687012 -42.05078125 39.88208008 C-43.07325138 41.07135113 -44.09579382 42.26056002 -45.1184082 43.44970703 C-47.5922193 46.32843861 -50.06021571 49.21196474 -52.52075195 52.10205078 C-53.36379883 53.08947266 -54.2068457 54.07689453 -55.07543945 55.09423828 C-58.08292248 58.69039991 -60.86322039 62.45581461 -63.64575195 66.22705078 C-62.76004517 66.29267212 -62.76004517 66.29267212 -61.85644531 66.35961914 C-42.51505429 67.88927363 -23.49747557 70.9396497 -4.37301636 74.1394043 C11.68030894 76.82479386 27.73631997 79.39621942 43.85424805 81.66455078 C44.69990326 81.78383942 45.54555847 81.90312805 46.4168396 82.02603149 C53.11361732 82.96839944 53.11361732 82.96839944 59.81492615 83.87779236 C61.79451713 84.15006537 63.77147383 84.44151389 65.74720764 84.74049377 C74.30913728 85.98691026 82.58094792 86.4841579 91.2253418 86.38720703 C92.57623307 86.38050646 93.92713028 86.37492974 95.2780304 86.37034607 C98.21873258 86.358955 101.15932809 86.34202775 104.09997559 86.32080078 C112.50102336 86.26181666 120.90224698 86.24721362 129.3034668 86.23095703 C130.22389393 86.22891392 131.14432106 86.2268708 132.09263992 86.22476578 C148.812375 86.19100865 165.52974195 86.29399752 182.2487793 86.44189453 C183.5005578 86.45295668 184.75233631 86.46401882 186.0420475 86.47541618 C197.65748501 86.57919704 209.27285344 86.69008961 220.88821411 86.80209351 C246.84893675 87.05133652 272.80623548 87.2814608 298.76831055 87.18798828 C300.69816071 87.18199605 302.62801097 87.17603437 304.55786133 87.17010498 C312.50084075 87.14359346 320.44341219 87.10797369 328.38611031 87.03473473 C331.49829495 87.00857397 334.61046033 86.99379427 337.72272873 86.98186111 C339.14137406 86.97355129 340.5599997 86.95983598 341.9785347 86.94028854 C343.8814681 86.91422767 345.78463976 86.90767369 347.68774414 86.90234375 C348.74254974 86.89266571 349.79735535 86.88298767 350.88412476 86.87301636 C351.69926544 86.98984772 352.51440613 87.10667908 353.35424805 87.22705078 C354.01424805 88.21705078 354.67424805 89.20705078 355.35424805 90.22705078 C222.03424805 90.22705078 88.71424805 90.22705078 -48.64575195 90.22705078 C-48.64575195 89.56705078 -48.64575195 88.90705078 -48.64575195 88.22705078 C-61.18575195 88.22705078 -73.72575195 88.22705078 -86.64575195 88.22705078 C-82.72067264 82.99361169 -78.82570222 77.99018396 -74.52075195 73.10205078 C-73.37195632 71.78725945 -72.22352698 70.47214798 -71.07543945 69.15673828 C-70.50148438 68.5002832 -69.9275293 67.84382813 -69.33618164 67.16748047 C-66.75394126 64.20334896 -64.19940748 61.21580502 -61.64575195 58.22705078 C-57.49749709 53.37760526 -53.32900613 48.54633351 -49.14575195 43.72705078 C-43.45732441 37.17271722 -37.80217676 30.59059574 -32.16040039 23.99609375 C-30.57633086 22.14596998 -28.99020494 20.29762633 -27.40356445 18.44970703 C-26.86868408 17.82652588 -26.33380371 17.20334473 -25.78271484 16.5612793 C-24.76917804 15.38052228 -23.75536533 14.200002 -22.74121094 13.01977539 C-22.27787354 12.47973877 -21.81453613 11.93970215 -21.3371582 11.38330078 C-20.88614746 10.86123047 -20.43513672 10.33916016 -19.97045898 9.80126953 C-19.07763922 8.74028504 -18.2089283 7.6585976 -17.36401367 6.55908203 C-12.42760686 0.20540532 -7.69909945 -0.06878066 0 0 Z " fill="#FEAE5E" transform="translate(122.645751953125,82.77294921875)"/>
<path d="M0 0 C29.43625676 -0.06845063 58.87250975 -0.12153567 88.3088294 -0.15319599 C91.78474382 -0.15694807 95.26065808 -0.16083104 98.73657227 -0.16479492 C99.77455195 -0.16597532 99.77455195 -0.16597532 100.83350091 -0.16717956 C112.03528685 -0.18023038 123.23702656 -0.20388243 134.43878508 -0.23145839 C145.93443468 -0.25952163 157.43005176 -0.27595367 168.92573494 -0.28226548 C175.38201459 -0.28617879 181.83818942 -0.29538571 188.2944355 -0.31719017 C194.37069985 -0.33754516 200.44681614 -0.34383573 206.52311134 -0.33932304 C208.75357111 -0.34014868 210.9840358 -0.34612009 213.21446609 -0.35761642 C216.26002642 -0.3725448 219.30502791 -0.36895206 222.3506012 -0.36076355 C223.23291131 -0.36950207 224.11522143 -0.3782406 225.02426821 -0.38724393 C230.43326145 -0.347943 234.16992657 0.53661776 239 3 C239 3.33 239 3.66 239 4 C219.02281365 4.02346961 199.04563014 4.04104771 179.06843281 4.05181217 C169.7904902 4.05694548 160.51255621 4.06393092 151.23461914 4.07543945 C143.13807916 4.08547768 135.04154543 4.09187493 126.9449994 4.09408849 C122.66695677 4.09538025 118.388932 4.09836692 114.11089516 4.10573006 C97.44189055 4.13332041 80.81939533 4.12692142 64.1736784 3.11494923 C57.80825117 2.77833046 51.42862507 2.69532164 45.056427 2.5541687 C30.02728239 2.21934095 15.01476636 1.75314196 0 1 C0 0.67 0 0.34 0 0 Z " fill="#FED190" transform="translate(161,86)"/>
<path d="M0 0 C-133.32 0 -266.64 0 -404 0 C-404 -0.66 -404 -1.32 -404 -2 C-352.9660899 -2.19604552 -301.93214518 -2.3763354 -250.8981056 -2.53537826 C-244.87844048 -2.55415155 -238.85877578 -2.57305581 -232.83911133 -2.59204102 C-231.04143694 -2.59770733 -231.04143694 -2.59770733 -229.2074459 -2.60348812 C-209.7807588 -2.66503422 -190.35412484 -2.73720013 -170.92748978 -2.8132638 C-151.00651605 -2.89102764 -131.08552802 -2.95744155 -111.16448051 -3.01323253 C-98.86375578 -3.04804235 -86.56312869 -3.0917946 -74.26247761 -3.14684484 C-65.83714148 -3.18370501 -57.41181712 -3.20957973 -48.98641785 -3.22667392 C-44.11925995 -3.2368777 -39.25224647 -3.25206045 -34.38515663 -3.28024101 C-29.9346941 -3.30590285 -25.484419 -3.31785878 -21.0338845 -3.31862888 C-19.4187502 -3.32137887 -17.80361529 -3.32928254 -16.18853434 -3.34269472 C-14.00268464 -3.36011433 -11.81760241 -3.35922184 -9.6317091 -3.35352612 C-7.80620361 -3.3597915 -7.80620361 -3.3597915 -5.94381922 -3.36618346 C-3 -3 -3 -3 0 0 Z " fill="#EEA55C" transform="translate(478,173)"/>
<path d="M0 0 C2.51674291 1.88755718 3.74476216 3.29748822 4.8203125 6.2578125 C6.5412697 10.25818322 9.21554589 13.39974148 11.8984375 16.80273438 C15 20.8055626 15 20.8055626 15 23 C11.78245416 23.60141044 10.11981945 23.79867378 7 23 C3.0621518 20.0875699 -0.17213842 16.579386 -3.5 13 C-4.42519024 12.03464044 -5.35225871 11.07107725 -6.28125 10.109375 C-8.53992689 7.75658658 -10.77784658 5.38722768 -13 3 C-8.71547836 0.14365224 -5.1639995 -0.53791661 0 0 Z " fill="#FFD493" transform="translate(423,112)"/>
<path d="M0 0 C10.56 0 21.12 0 32 0 C32 2.31 32 4.62 32 7 C21.44 7 10.88 7 0 7 C0 4.69 0 2.38 0 0 Z " fill="#D5773B" transform="translate(58,214)"/>
<path d="M0 0 C1.29349365 0.00523682 2.5869873 0.01047363 3.91967773 0.01586914 C4.9496714 0.01799156 4.9496714 0.01799156 6.00047302 0.02015686 C8.20144949 0.0257706 10.40232557 0.03832532 12.60327148 0.05102539 C14.09220231 0.05603863 15.58113473 0.06060184 17.07006836 0.06469727 C20.72700223 0.07574446 24.38387707 0.09301826 28.04077148 0.11352539 C28.04077148 2.42352539 28.04077148 4.73352539 28.04077148 7.11352539 C17.48077148 7.11352539 6.92077148 7.11352539 -3.95922852 7.11352539 C-3.95922852 0.15188856 -3.95922852 0.15188856 0 0 Z " fill="#D5773B" transform="translate(425.959228515625,213.886474609375)"/>
<path d="M0 0 C3.17578125 -0.4453125 3.17578125 -0.4453125 7 0 C9.26125327 2.04129292 10.66503308 4.50665109 12.1875 7.125 C12.59935547 7.79015625 13.01121094 8.4553125 13.43554688 9.140625 C14.24815939 10.45419832 15.05163415 11.77347484 15.84521484 13.09863281 C17.48042366 15.79102314 19.23321355 18.3924669 21 21 C20.67 21.66 20.34 22.32 20 23 C0 1.58646617 0 1.58646617 0 0 Z " fill="#FECD8A" transform="translate(434,138)"/>
<path d="M0 0 C0.3421907 0.48986893 0.68438141 0.97973785 1.03694153 1.48445129 C-9.09843449 1.5307258 -19.23378551 1.56629557 -29.36924553 1.58807564 C-34.0751963 1.59852726 -38.78107498 1.61271151 -43.48698425 1.6353302 C-48.02569923 1.65700955 -52.56434471 1.66900952 -57.10310745 1.67420578 C-58.83752156 1.67791039 -60.57193173 1.68514424 -62.30631638 1.69591141 C-64.72957933 1.71036124 -67.15255256 1.71243199 -69.57585144 1.71150208 C-70.65910202 1.7222879 -70.65910202 1.7222879 -71.76423645 1.73329163 C-76.73495415 1.71255562 -76.73495415 1.71255562 -78.96305847 -0.51554871 C-68.97559545 -0.71560979 -58.98797917 -0.89934664 -48.99983501 -1.06213665 C-44.36213847 -1.13823875 -39.72468469 -1.22000181 -35.08732605 -1.31462097 C-30.61360779 -1.40569433 -26.13986077 -1.48200351 -21.66570473 -1.54799843 C-19.95715221 -1.57581082 -18.24867837 -1.60897971 -16.5403347 -1.64754295 C-14.1508735 -1.70057421 -11.76184383 -1.73470229 -9.37199402 -1.764328 C-8.30816246 -1.79453285 -8.30816246 -1.79453285 -7.22283936 -1.8253479 C-2.4053928 -1.85704603 -2.4053928 -1.85704603 0 0 Z " fill="#E6AD6A" transform="translate(476.9630584716797,171.5155487060547)"/>
</svg>
